<svg width="424" height="412" viewBox="0 0 424 412" fill="none" xmlns="http://www.w3.org/2000/svg">
<g filter="url(#filter0_d_11_96)">
<rect x="195.958" y="117.914" width="7.51304" height="7.51304" rx="3.75652" fill="url(#paint0_linear_11_96)"/>
</g>
<g filter="url(#filter1_d_11_96)">
<rect x="399.312" y="214.582" width="7.51304" height="7.51304" rx="3.75652" fill="url(#paint1_linear_11_96)"/>
</g>
<g filter="url(#filter2_d_11_96)">
<rect x="319.172" y="290.714" width="7.51304" height="7.51304" rx="3.75652" fill="url(#paint2_linear_11_96)"/>
</g>
<g filter="url(#filter3_d_11_96)">
<rect x="176.425" y="284.703" width="15.527" height="15.527" rx="7.76348" fill="url(#paint3_linear_11_96)"/>
</g>
<g filter="url(#filter4_d_11_96)">
<rect x="314.665" y="261.663" width="9.01565" height="9.01565" rx="4.50783" fill="url(#paint4_linear_11_96)"/>
</g>
<g filter="url(#filter5_d_11_96)">
<rect x="73.2455" y="261.162" width="9.01565" height="9.01565" rx="4.50783" fill="url(#paint5_linear_11_96)"/>
</g>
<g filter="url(#filter6_d_11_96)">
<rect x="267.082" y="302.234" width="4.50783" height="4.50783" rx="2.25391" fill="url(#paint6_linear_11_96)"/>
</g>
<path d="M226.244 45.7396C226.244 45.7396 182.042 47.1697 170.854 67.5476C159.959 87.3935 180.664 124.685 180.664 124.685C180.664 124.685 210.91 174.459 202.573 206.447C188.338 261.055 97.4868 204.637 65.0458 250.814C28.9177 302.238 84.743 410.534 84.743 410.534" stroke="#FFC819" stroke-width="0.585029"/>
<path d="M370.991 383.197C370.991 383.197 401.235 350.93 394.736 328.61C388.407 306.873 347.397 295.145 347.397 295.145C347.397 295.145 290.814 281.336 274.091 252.821C245.542 204.142 349.678 179.794 339.966 124.203C329.149 62.2941 213.098 25.1923 213.098 25.1923" stroke="#FCC822" stroke-width="0.877543"/>
<circle cx="276.098" cy="187.034" r="3.00522" fill="url(#paint7_linear_11_96)"/>
<circle cx="291.123" cy="205.908" r="3.00522" fill="url(#paint8_linear_11_96)"/>
<circle cx="300.64" cy="205.908" r="1.50261" fill="url(#paint9_linear_11_96)"/>
<circle cx="297.853" cy="212.637" r="1.50261" transform="rotate(45 297.853 212.637)" fill="url(#paint10_linear_11_96)"/>
<circle cx="290.962" cy="215.424" r="1.50261" transform="rotate(90 290.962 215.424)" fill="url(#paint11_linear_11_96)"/>
<circle cx="284.233" cy="212.637" r="1.50261" transform="rotate(135 284.233 212.637)" fill="url(#paint12_linear_11_96)"/>
<circle cx="281.607" cy="205.908" r="1.50261" fill="url(#paint13_linear_11_96)"/>
<circle cx="284.394" cy="199.179" r="1.50261" transform="rotate(45 284.394 199.179)" fill="url(#paint14_linear_11_96)"/>
<circle cx="290.962" cy="196.391" r="1.50261" transform="rotate(90 290.962 196.391)" fill="url(#paint15_linear_11_96)"/>
<circle cx="297.691" cy="199.179" r="1.50261" transform="rotate(135 297.691 199.179)" fill="url(#paint16_linear_11_96)"/>
<path d="M258.681 284.43L261.301 284.899C264.084 285.395 265.936 288.054 265.439 290.836L264.958 293.524C264.461 296.306 261.802 298.158 259.02 297.662L256.4 297.193C253.618 296.696 251.765 294.037 252.262 291.254L252.743 288.568C253.24 285.785 255.899 283.932 258.681 284.43ZM276.109 212.125C282.915 213.341 287.629 216.703 290.251 222.208C292.338 226.556 292.919 231.327 291.99 236.521C290.437 245.209 285.026 252.769 275.757 259.199C272.525 261.441 270.496 264.359 269.667 267.955C269.361 269.147 269.076 270.483 268.812 271.961C268.315 274.743 265.656 276.596 262.874 276.098L260.254 275.63C257.471 275.133 255.619 272.474 256.116 269.692V269.691C257.533 261.764 260.533 256.225 265.117 253.069C270.071 249.656 273.723 245.897 276.076 241.787C277.428 239.395 278.356 236.788 278.861 233.967C279.38 231.056 279.139 228.656 278.137 226.766C277.046 224.585 275.105 223.429 272.31 223.299C269.701 223.157 267.548 224.598 265.853 227.622C265.767 227.768 265.684 227.918 265.602 228.07C264.4 230.305 261.731 231.312 259.349 230.439L257.013 229.585C254.123 228.527 252.804 225.166 254.217 222.431C255.62 219.712 257.471 217.407 259.769 215.512C262.259 213.463 265.438 212.227 269.303 211.809C271.331 211.572 273.6 211.676 276.109 212.125Z" fill="#AEDBED"/>
<path d="M159.202 295.151L161.377 295.255C163.688 295.365 165.472 297.327 165.362 299.638L165.256 301.869C165.146 304.18 163.183 305.964 160.873 305.855L158.697 305.751C156.387 305.64 154.603 303.678 154.713 301.368L154.819 299.135C154.929 296.825 156.891 295.041 159.202 295.151ZM165.718 234.629C171.37 234.898 175.551 237.129 178.259 241.32C180.412 244.629 181.386 248.44 181.181 252.753C180.838 259.969 177.243 266.675 170.398 272.871C168.011 275.032 166.673 277.615 166.38 280.62C166.257 281.62 166.167 282.734 166.108 283.962C165.998 286.273 164.036 288.056 161.725 287.947L159.55 287.844C157.238 287.733 155.455 285.771 155.564 283.46C155.878 276.877 157.729 272.064 161.117 269.02C164.777 265.727 167.345 262.29 168.82 258.707C169.665 256.622 170.143 254.409 170.255 252.066C170.37 249.649 169.921 247.726 168.908 246.299C167.793 244.643 166.095 243.91 163.813 244.099C161.681 244.259 160.085 245.655 159.029 248.289C158.975 248.416 158.922 248.547 158.872 248.679C158.133 250.62 156.073 251.718 154.048 251.261L152.062 250.814C149.603 250.26 148.18 247.672 149.037 245.303C149.889 242.948 151.147 240.882 152.812 239.102C154.618 237.176 157.068 235.838 160.16 235.091C161.782 234.684 163.635 234.529 165.718 234.629Z" fill="#AEDBED"/>
<path d="M197.575 208.065L199.234 207.774C200.997 207.464 202.675 208.642 202.984 210.404L203.283 212.105C203.592 213.867 202.415 215.546 200.653 215.855L198.993 216.146C197.232 216.456 195.553 215.278 195.244 213.516L194.945 211.815C194.636 210.053 195.814 208.374 197.575 208.065ZM192.22 161.302C196.529 160.546 200.061 161.519 202.816 164.222C205.001 166.352 206.383 169.062 206.961 172.351C207.926 177.852 206.352 183.521 202.241 189.358C200.807 191.392 200.235 193.568 200.525 195.884C200.602 196.661 200.723 197.516 200.887 198.451C201.196 200.214 200.018 201.892 198.257 202.201L196.598 202.492C194.836 202.802 193.157 201.624 192.847 199.862C191.967 194.843 192.546 190.898 194.585 188.027C196.787 184.922 198.142 181.893 198.646 178.94C198.929 177.224 198.915 175.472 198.601 173.686C198.278 171.843 197.613 170.469 196.606 169.564C195.485 168.504 194.079 168.239 192.39 168.769C190.808 169.252 189.841 170.575 189.492 172.742C189.472 172.848 189.455 172.954 189.439 173.064C189.212 174.653 187.844 175.831 186.238 175.83L184.665 175.83C182.716 175.829 181.202 174.118 181.447 172.185C181.691 170.265 182.289 168.493 183.243 166.868C184.279 165.107 185.9 163.683 188.106 162.594C189.259 162.012 190.631 161.581 192.22 161.302Z" fill="#AEDBED"/>
<path d="M76.1911 258.043L77.2925 258.328C78.4618 258.63 79.1638 259.824 78.8612 260.993L78.5686 262.122C78.266 263.292 77.0725 263.994 75.9033 263.691L74.8018 263.407C73.6326 263.103 72.9305 261.911 73.2332 260.741L73.5257 259.612C73.8283 258.443 75.0218 257.74 76.1911 258.043ZM85.979 227.804C88.8394 228.546 90.738 230.132 91.6756 232.563C92.4229 234.484 92.5142 236.536 91.9486 238.719C91.0032 242.37 88.451 245.414 84.291 247.851C82.8409 248.7 81.8807 249.877 81.4103 251.382C81.2411 251.881 81.0757 252.439 80.915 253.061C80.6123 254.23 79.4189 254.933 78.2496 254.63L77.149 254.345C75.9797 254.042 75.2769 252.849 75.5795 251.68C76.4423 248.348 77.9017 246.086 79.9587 244.892C82.1802 243.598 83.8596 242.116 84.9962 240.442C85.6498 239.467 86.1311 238.387 86.4377 237.2C86.7544 235.978 86.7302 234.948 86.3643 234.109C85.972 233.144 85.1818 232.588 83.9954 232.442C82.8885 232.296 81.9244 232.839 81.103 234.073C81.0616 234.133 81.0211 234.193 80.9813 234.256C80.3963 235.168 79.2262 235.509 78.2395 235.061L77.273 234.62C76.0756 234.074 75.6232 232.6 76.3151 231.48C77.0015 230.368 77.865 229.446 78.9056 228.714C80.0343 227.922 81.429 227.5 83.0897 227.448C83.9618 227.413 84.9252 227.532 85.979 227.804Z" fill="#AEDBED"/>
<path d="M119.452 262.868L122.851 261.995C126.461 261.067 130.139 263.243 131.066 266.853L131.961 270.339C132.889 273.949 130.713 277.627 127.103 278.554L123.704 279.427C120.094 280.354 116.416 278.179 115.488 274.569L114.594 271.082C113.666 267.472 115.842 263.794 119.452 262.868ZM100.768 166.587C109.599 164.32 117.094 165.772 123.254 170.94C128.138 175.013 131.446 180.419 133.177 187.159C136.072 198.432 133.719 210.461 126.12 223.251C123.47 227.71 122.634 232.322 123.61 237.088C123.896 238.686 124.285 240.445 124.778 242.363C125.704 245.973 123.53 249.651 119.92 250.577L116.519 251.45C112.91 252.378 109.232 250.203 108.305 246.593C105.664 236.307 106.23 228.019 110.001 221.723C114.075 214.917 116.398 208.407 116.97 202.189C117.282 198.579 116.967 194.943 116.027 191.283C115.058 187.507 113.455 184.76 111.218 183.042C108.716 181.023 105.753 180.699 102.328 182.074C99.1215 183.331 97.3274 186.237 96.9499 190.794C96.928 191.016 96.9093 191.242 96.8945 191.471C96.6769 194.808 94.0263 197.477 90.6909 197.735L87.4209 197.988C83.3741 198.302 79.9528 194.993 80.1486 190.937C80.3436 186.909 81.3008 183.129 83.02 179.599C84.8858 175.776 88.0231 172.555 92.4303 169.936C94.7346 168.541 97.5131 167.424 100.768 166.587Z" fill="#AEDBED"/>
<path d="M341.923 265.113L344.326 264.496C346.877 263.84 349.476 265.378 350.131 267.929L350.763 270.393C351.419 272.943 349.882 275.543 347.331 276.198L344.928 276.815C342.377 277.47 339.778 275.933 339.123 273.382L338.49 270.918C337.835 268.367 339.372 265.768 341.923 265.113ZM328.72 197.074C334.961 195.472 340.258 196.497 344.61 200.15C348.062 203.028 350.4 206.848 351.623 211.611C353.668 219.576 352.006 228.079 346.636 237.116C344.763 240.267 344.172 243.526 344.862 246.895C345.064 248.024 345.339 249.267 345.687 250.622C346.342 253.173 344.805 255.772 342.254 256.427L339.852 257.044C337.301 257.699 334.702 256.162 334.046 253.611C332.18 246.343 332.58 240.486 335.245 236.037C338.124 231.228 339.765 226.626 340.17 222.232C340.39 219.682 340.168 217.112 339.504 214.525C338.819 211.857 337.685 209.916 336.105 208.702C334.337 207.275 332.243 207.046 329.823 208.017C327.557 208.905 326.289 210.96 326.022 214.179C326.006 214.337 325.993 214.496 325.982 214.657C325.83 217.017 323.956 218.902 321.599 219.085L319.288 219.264C316.428 219.486 314.01 217.147 314.149 214.281C314.287 211.434 314.963 208.763 316.178 206.268C317.497 203.567 319.714 201.291 322.829 199.44C324.456 198.454 326.42 197.664 328.72 197.074Z" fill="#AEDBED"/>
<path d="M330.936 152.233L332.264 151.892C333.674 151.53 335.111 152.379 335.473 153.789L335.822 155.151C336.185 156.561 335.335 157.998 333.925 158.359L332.597 158.701C331.187 159.063 329.75 158.213 329.389 156.803L329.038 155.441C328.676 154.031 329.526 152.595 330.936 152.233ZM323.638 114.625C327.087 113.739 330.016 114.306 332.421 116.325C334.329 117.916 335.621 120.027 336.297 122.66C337.428 127.062 336.509 131.762 333.541 136.757C332.506 138.5 332.18 140.3 332.56 142.162C332.672 142.787 332.824 143.474 333.016 144.222C333.378 145.633 332.529 147.07 331.119 147.432L329.791 147.772C328.381 148.134 326.944 147.285 326.582 145.875C325.551 141.857 325.771 138.62 327.245 136.161C328.836 133.502 329.743 130.959 329.967 128.53C330.088 127.121 329.966 125.7 329.598 124.271C329.22 122.796 328.594 121.723 327.719 121.051C326.743 120.264 325.585 120.136 324.247 120.673C322.995 121.165 322.294 122.3 322.147 124.08C322.138 124.167 322.13 124.255 322.125 124.344C322.04 125.648 321.005 126.69 319.702 126.791L318.424 126.89C316.844 127.012 315.508 125.72 315.584 124.136C315.661 122.562 316.034 121.086 316.706 119.707C317.434 118.214 318.66 116.955 320.381 115.933C321.282 115.388 322.367 114.951 323.638 114.625Z" fill="#AEDBED"/>
<path d="M152.779 175.684C152.779 175.684 160.462 138.225 142.955 140.07L126.218 174.918C126.218 174.918 137.437 179.516 152.779 175.684Z" fill="#361710"/>
<path d="M113.771 175.684C113.771 175.684 109.512 145.308 122.726 137.599L140.331 174.918C140.331 174.918 129.114 179.516 113.771 175.684Z" fill="#361710"/>
<path d="M86.6484 167.284H88.6859C90.8497 167.284 92.604 169.038 92.604 171.201V173.291C92.604 175.455 90.8497 177.209 88.6859 177.209H86.6484C84.4846 177.209 82.7311 175.455 82.7311 173.291V171.201C82.7311 169.038 84.4846 167.284 86.6484 167.284ZM90.0447 110.449C95.3373 110.449 99.342 112.346 102.059 116.142C104.218 119.137 105.298 122.655 105.298 126.694C105.298 133.451 102.238 139.876 96.1189 145.971C93.9847 148.095 92.849 150.568 92.7093 153.389C92.6391 154.329 92.604 155.373 92.604 156.522C92.604 158.687 90.8497 160.44 88.6859 160.44H86.6484C84.4846 160.44 82.7311 158.687 82.7311 156.522C82.7311 150.358 84.2459 145.78 87.2756 142.784C90.5486 139.545 92.7944 136.22 94.0143 132.806C94.7101 130.822 95.0588 128.732 95.0588 126.538C95.0588 124.274 94.5541 122.499 93.544 121.21C92.4293 119.713 90.8099 119.102 88.6859 119.381C86.7007 119.625 85.2724 121.001 84.4027 123.508C84.3575 123.63 84.3146 123.754 84.2732 123.88C83.6695 125.726 81.7935 126.843 79.8808 126.508L78.0056 126.178C75.6842 125.769 74.2388 123.415 74.9346 121.163C75.6257 118.926 76.71 116.939 78.1858 115.201C79.788 113.321 82.0166 111.963 84.8731 111.128C86.37 110.676 88.0931 110.449 90.0447 110.449Z" fill="#FCC822"/>
<path d="M135.393 321.168C135.393 321.168 134.424 324.915 132.68 324.35C129.419 323.297 129.229 321.168 129.229 321.168C129.229 321.168 127.173 327.368 127.564 330.321C127.956 333.273 127.564 339.911 127.564 339.911H130.54C130.54 339.911 133.323 340.25 134.477 341.928C135.631 343.605 141.953 343.108 143.957 342.031C146.525 340.653 139.787 333.639 137.403 329.73C135.019 325.821 135.393 321.168 135.393 321.168Z" fill="#1C0906"/>
<path d="M129.824 265.994C131.88 260.915 139.216 260.972 141.025 266.143C141.351 267.075 141.587 268.051 141.742 269.039C142.502 273.888 141.738 281.661 139.736 291.587C137.034 304.981 135.574 331.698 130.882 332.092C126.189 332.485 128.947 310.018 128.849 296.733C128.752 283.448 126.658 273.815 129.629 266.478L129.824 265.994Z" fill="#CF9166"/>
<path d="M132.524 304.318C131.882 286.793 133.048 273.793 130.252 264.553L130.069 263.945C128.134 257.549 122.218 258.688 121.038 265.767C120.826 267.043 120.688 268.362 120.617 269.688C120.267 276.189 121.305 286.323 123.459 299.116C126.367 316.378 127.074 332.255 130.882 332.092C134.689 331.929 133.166 321.843 132.524 304.318Z" fill="#EDAC7C"/>
<path d="M127.207 324.251C127.207 324.251 128.037 330.869 130.347 330.469C132.619 330.075 133.371 324.251 133.371 324.251C133.371 324.251 135.428 330.45 135.037 333.402C134.816 335.066 134.844 337.9 134.91 340.057C134.959 341.665 133.67 342.993 132.061 342.993C132.061 342.993 129.278 343.331 128.123 345.009C126.97 346.688 120.647 346.19 118.643 345.114C116.076 343.735 122.814 336.721 125.198 332.812C127.582 328.903 127.207 324.251 127.207 324.251Z" fill="#361710"/>
<path d="M146.892 223.827L131.994 221.13V221.026L131.708 221.078L131.422 221.026V221.13L116.525 223.827C116.525 223.827 111.256 231.673 112.288 240.904C113.318 250.133 118.069 300.051 118.069 300.051H143.715C143.715 300.051 150.098 250.133 151.129 240.904C152.159 231.673 146.892 223.827 146.892 223.827Z" fill="#195172"/>
<path d="M148.667 227.151C147.727 225.073 146.892 223.826 146.892 223.826L131.994 221.129V221.025L131.708 221.077L131.423 221.025V221.129L116.525 223.826C116.525 223.826 115.689 225.073 114.75 227.151H148.667Z" fill="#0D435E"/>
<path d="M134.912 300.05L135.086 250.183L139.357 300.05" fill="#0D435E"/>
<path d="M112.164 237.925C113.61 237.882 116.045 237.595 119.57 236.48C125.75 234.526 125.803 226.368 125.803 226.368L125.637 222.177L116.525 223.826C116.525 223.826 112.353 230.046 112.164 237.925Z" fill="#0D435E"/>
<path d="M151.252 237.927C151.064 230.048 146.892 223.827 146.892 223.827L137.152 222.064L136.904 226.369C136.904 226.369 136.956 234.527 143.136 236.481C147.325 237.806 149.975 237.963 151.252 237.927Z" fill="#0D435E"/>
<path d="M117.357 181.509L127.94 177.208L136.246 177.298L149.224 182.711C149.224 182.711 142.459 205.964 142.905 211.964C143.35 217.964 146.891 224.754 146.891 224.754H117.357C117.357 224.754 122.645 214.055 121.484 207.744C120.323 201.432 117.357 181.509 117.357 181.509Z" fill="#5C93BC"/>
<path d="M142.187 145.157C138.596 138.437 119.61 136.058 116.12 157.183C113.574 172.577 130.894 176.208 139.674 173.389C154.61 168.593 145.779 151.876 142.187 145.157Z" fill="#3E150D"/>
<path d="M145.278 159.447C145.278 159.447 147.962 156 150.432 158.265C152.904 160.531 149.372 167.511 144.641 165.869L145.278 159.447Z" fill="#EDAC7C"/>
<path d="M145.037 161.881L144.708 165.187C148.8 165.922 151.136 160.223 149.254 159.432C147.731 158.794 145.842 160.793 145.037 161.881Z" fill="#F7A588"/>
<path d="M149.913 160.613C149.913 160.613 149.905 160.588 149.893 160.54C149.88 160.493 149.858 160.426 149.831 160.342C149.769 160.178 149.664 159.941 149.464 159.771C149.414 159.728 149.355 159.694 149.295 159.665C149.264 159.652 149.233 159.637 149.198 159.626L149.176 159.618L149.174 159.617C149.192 159.624 149.178 159.619 149.181 159.621L149.178 159.619L149.169 159.617L149.153 159.613L149.088 159.596C149.042 159.582 149.006 159.577 148.971 159.571C148.938 159.565 148.9 159.56 148.857 159.557C148.818 159.555 148.777 159.553 148.737 159.553C148.694 159.553 148.654 159.552 148.612 159.557C148.276 159.581 147.92 159.712 147.581 159.894C147.409 159.982 147.245 160.089 147.083 160.196C146.923 160.305 146.765 160.418 146.616 160.532C146.319 160.762 146.049 160.994 145.815 161.194C145.347 161.606 145.037 161.882 145.037 161.882C145.037 161.882 145.077 161.784 145.164 161.622C145.253 161.461 145.386 161.234 145.573 160.98C145.667 160.854 145.77 160.716 145.89 160.579C146.01 160.442 146.142 160.301 146.287 160.163C146.578 159.887 146.919 159.616 147.312 159.406C147.509 159.302 147.717 159.213 147.935 159.152C148.153 159.091 148.382 159.058 148.606 159.067C148.662 159.067 148.716 159.072 148.772 159.08C148.827 159.083 148.88 159.096 148.933 159.107C148.985 159.117 149.038 159.133 149.092 159.151C149.148 159.168 149.199 159.185 149.235 159.205L149.297 159.234L149.336 159.252L149.371 159.27C149.417 159.294 149.459 159.323 149.499 159.354C149.578 159.416 149.648 159.485 149.701 159.557C149.815 159.699 149.87 159.852 149.902 159.984C149.936 160.115 149.939 160.232 149.941 160.324C149.941 160.417 149.93 160.491 149.925 160.539C149.917 160.589 149.913 160.613 149.913 160.613Z" fill="#CF9166"/>
<path d="M120.392 159.179C120.392 159.179 117.783 155.676 115.265 157.887C112.745 160.098 116.125 167.153 120.892 165.613L120.392 159.179Z" fill="#EDAC7C"/>
<path d="M120.582 161.618L120.839 164.93C116.732 165.577 114.52 159.829 116.419 159.079C117.954 158.474 119.801 160.512 120.582 161.618Z" fill="#F7A588"/>
<path d="M115.735 160.245C115.735 160.245 115.742 160.221 115.756 160.174C115.77 160.126 115.793 160.06 115.823 159.975C115.886 159.812 115.996 159.578 116.202 159.412C116.252 159.371 116.31 159.338 116.372 159.31C116.404 159.298 116.434 159.284 116.467 159.274L116.494 159.266L116.495 159.266C116.476 159.273 116.491 159.266 116.487 159.268H116.491L116.499 159.265L116.515 159.261L116.581 159.245C116.626 159.232 116.663 159.228 116.698 159.223C116.732 159.217 116.771 159.214 116.813 159.213C116.853 159.21 116.892 159.209 116.933 159.211C116.974 159.211 117.016 159.212 117.058 159.218C117.392 159.248 117.746 159.386 118.081 159.576C118.25 159.669 118.413 159.777 118.573 159.889C118.73 160.002 118.885 160.118 119.032 160.236C119.324 160.472 119.59 160.709 119.82 160.913C120.278 161.337 120.582 161.618 120.582 161.618C120.582 161.618 120.544 161.52 120.459 161.356C120.376 161.194 120.247 160.963 120.065 160.705C119.974 160.577 119.873 160.436 119.756 160.298C119.639 160.158 119.512 160.014 119.369 159.872C119.084 159.592 118.75 159.312 118.361 159.093C118.168 158.987 117.959 158.893 117.743 158.827C117.526 158.761 117.298 158.723 117.075 158.727C117.018 158.726 116.963 158.731 116.908 158.737C116.853 158.739 116.8 158.748 116.745 158.761C116.694 158.769 116.641 158.783 116.586 158.801C116.531 158.817 116.48 158.833 116.442 158.852L116.381 158.878L116.342 158.896L116.306 158.914C116.259 158.936 116.215 158.965 116.174 158.994C116.095 159.056 116.025 159.122 115.968 159.193C115.853 159.334 115.794 159.486 115.759 159.615C115.722 159.746 115.716 159.862 115.713 159.956C115.711 160.05 115.719 160.123 115.725 160.171C115.731 160.22 115.735 160.245 115.735 160.245Z" fill="#CF9166"/>
<path d="M135.692 170.048L128.955 169.974C128.955 169.974 128.582 180.521 128.557 180.521C128.557 180.521 129.029 182.63 132.017 182.709C135.006 182.787 135.767 180.597 135.767 180.597C135.743 180.54 135.692 170.048 135.692 170.048Z" fill="#EDAC7C"/>
<path d="M135.767 173.931L128.743 173.696C128.743 173.696 128.704 177.578 128.679 177.578C128.679 177.578 129.056 180.044 132.045 180.123C135.034 180.201 135.737 177.935 135.737 177.935C135.714 177.877 135.767 173.931 135.767 173.931Z" fill="#CF9166"/>
<path d="M135.671 171.987L128.933 171.914C128.933 171.914 128.834 173.26 128.744 174.406C128.73 174.572 130.663 174.886 130.873 174.921C132.518 175.2 134.145 175.006 135.754 174.614C135.714 173.441 135.671 171.987 135.671 171.987Z" fill="#CF9166"/>
<path d="M148.714 156.703C148.623 165.104 141.26 171.837 132.269 171.74C123.277 171.643 116.062 164.753 116.152 156.352C116.242 147.95 123.605 141.217 132.597 141.314C141.588 141.412 148.805 148.301 148.714 156.703Z" fill="#3E150D"/>
<path d="M146.985 156.477C146.873 151.795 144.908 147.354 140.302 145.488C137.961 144.538 135.381 144.264 132.864 144.277C130.377 144.291 127.728 144.424 125.381 145.299C121.178 146.869 120.037 144.307 119.565 148.578C119.518 148.996 118.963 150.784 118.393 156.169C118.291 157.128 118.265 158.082 118.29 159.05C118.347 161.227 118.67 163.412 119.358 165.486C120.191 168.001 121.602 170.343 123.674 172.063C124.851 173.041 126.21 173.795 127.653 174.322C130.036 175.19 132.312 175.494 134.818 175.06C136.517 174.767 138.176 174.23 139.674 173.388C142.159 171.992 144.032 169.8 145.215 167.256C146.209 165.114 146.74 162.779 146.951 160.441C147.067 159.161 147.106 157.859 146.994 156.579C146.991 156.545 146.986 156.511 146.985 156.477Z" fill="#EDAC7C"/>
<path d="M137.039 160.906C136.973 162.236 137.91 163.361 139.13 163.421C140.352 163.481 141.395 162.451 141.462 161.121C141.528 159.792 140.593 158.666 139.371 158.607C138.15 158.547 137.106 159.577 137.039 160.906Z" fill="#CF9166"/>
<path d="M137.067 160.343C137 161.673 137.937 162.798 139.158 162.859C140.38 162.919 141.423 161.888 141.489 160.559C141.557 159.23 140.621 158.103 139.399 158.044C138.178 157.985 137.134 159.014 137.067 160.343Z" fill="black"/>
<path d="M137.859 159.728C137.835 160.21 138.213 160.62 138.702 160.643C139.193 160.668 139.609 160.297 139.633 159.815C139.658 159.334 139.279 158.925 138.79 158.901C138.3 158.876 137.883 159.247 137.859 159.728Z" fill="white"/>
<path d="M123.851 160.387C123.785 161.716 124.721 162.842 125.942 162.902C127.164 162.962 128.207 161.931 128.273 160.602C128.341 159.273 127.405 158.147 126.183 158.087C124.963 158.029 123.918 159.057 123.851 160.387Z" fill="#CF9166"/>
<path d="M123.88 159.824C123.813 161.154 124.75 162.279 125.97 162.339C127.193 162.399 128.235 161.37 128.302 160.039C128.37 158.711 127.433 157.583 126.211 157.525C124.991 157.466 123.946 158.495 123.88 159.824Z" fill="black"/>
<path d="M124.672 159.21C124.648 159.691 125.024 160.101 125.515 160.125C126.005 160.149 126.422 159.779 126.446 159.296C126.47 158.814 126.093 158.405 125.601 158.381C125.112 158.357 124.696 158.728 124.672 159.21Z" fill="white"/>
<path d="M131.644 158.92C131.644 158.92 131.968 161.847 130.59 161.604C127.922 161.137 127.915 166.854 131.944 164.725C133.464 163.923 132.963 158.96 132.963 158.96L131.644 158.92Z" fill="#F48470"/>
<path d="M128.817 167.301C128.817 167.301 134.185 168.194 136.736 165.118C136.736 165.118 138.88 170.864 133.117 171.602C129.477 172.065 128.817 167.301 128.817 167.301Z" fill="#B43128"/>
<path d="M130.642 170.924C131.252 171.427 132.058 171.736 133.117 171.601C134.424 171.433 135.323 171.008 135.935 170.452C136.111 170.285 136.267 170.105 136.409 169.919C136.412 169.915 136.416 169.91 136.418 169.906C136.421 169.903 136.421 169.902 136.423 169.9C136.862 169.278 137.05 168.566 137.107 167.884C133.868 167.037 131.547 169.569 130.642 170.924Z" fill="#F05736"/>
<path d="M128.817 167.301C128.817 167.301 128.824 167.342 128.836 167.415C129.359 167.522 130.326 168.658 131.628 168.613C132.452 168.586 133.259 168.358 134 168.009C134.46 167.793 134.934 167.585 135.332 167.266C135.637 167.022 135.856 166.301 135.985 165.855C133.264 168.04 128.818 167.301 128.817 167.301Z" fill="white"/>
<path d="M129.176 167.638C129.409 168.712 130.307 171.67 133.08 171.315C134.617 171.12 135.697 170.533 136.289 169.575C137.108 168.252 136.815 166.517 136.604 165.691C134.298 167.978 130.441 167.776 129.176 167.638ZM132.583 171.918C129.198 171.882 128.535 167.388 128.53 167.339C128.516 167.25 128.548 167.159 128.615 167.095C128.682 167.032 128.774 167.003 128.867 167.018C128.918 167.026 134.099 167.846 136.509 164.936C136.576 164.858 136.68 164.817 136.784 164.835C136.888 164.852 136.974 164.922 137.01 165.02C137.052 165.133 138.04 167.844 136.79 169.871C136.101 170.985 134.878 171.665 133.155 171.884C132.955 171.91 132.766 171.92 132.583 171.918Z" fill="#F05B4E"/>
<path d="M126.729 166.988C126.715 168.215 125.694 169.198 124.446 169.184C123.198 169.171 122.195 168.166 122.208 166.939C122.222 165.712 123.244 164.729 124.492 164.741C125.74 164.756 126.742 165.761 126.729 166.988Z" fill="#F49B77"/>
<path d="M142.954 165.733C142.941 166.96 141.919 167.945 140.669 167.931C139.422 167.917 138.421 166.913 138.433 165.685C138.447 164.459 139.469 163.475 140.717 163.488C141.965 163.502 142.968 164.508 142.954 165.733Z" fill="#F49B77"/>
<path d="M122.33 154.315C122.33 154.315 122.38 154.223 122.497 154.081C122.556 154.012 122.628 153.922 122.721 153.836C122.812 153.745 122.92 153.65 123.046 153.552C123.17 153.454 123.312 153.356 123.467 153.261C123.624 153.17 123.791 153.071 123.975 152.994C124.154 152.906 124.349 152.838 124.549 152.772C124.748 152.703 124.959 152.665 125.166 152.611C125.376 152.578 125.588 152.546 125.795 152.526C126.004 152.514 126.211 152.509 126.408 152.51C126.607 152.521 126.798 152.538 126.978 152.555C127.16 152.576 127.327 152.617 127.481 152.648C127.634 152.683 127.773 152.712 127.895 152.759C128.016 152.801 128.121 152.841 128.206 152.874C128.376 152.939 128.471 152.986 128.471 152.986C128.471 152.986 128.363 153.001 128.182 153.014C128.092 153.021 127.983 153.03 127.859 153.033C127.737 153.034 127.596 153.05 127.445 153.063C127.295 153.076 127.134 153.076 126.965 153.095C126.795 153.113 126.618 153.131 126.435 153.144C126.253 153.168 126.068 153.196 125.876 153.217C125.688 153.249 125.499 153.281 125.308 153.315C125.213 153.335 125.119 153.357 125.025 153.376C124.93 153.397 124.837 153.412 124.746 153.439C124.654 153.464 124.562 153.487 124.472 153.509C124.38 153.529 124.296 153.563 124.207 153.586C124.031 153.634 123.865 153.692 123.705 153.744C123.624 153.769 123.55 153.803 123.475 153.828C123.4 153.855 123.326 153.879 123.258 153.909C123.12 153.963 122.992 154.014 122.881 154.063C122.766 154.109 122.67 154.156 122.585 154.192C122.508 154.232 122.44 154.258 122.398 154.282C122.353 154.304 122.33 154.315 122.33 154.315Z" fill="black"/>
<path d="M141.563 157.527C141.563 157.527 141.501 157.442 141.368 157.316C141.298 157.256 141.218 157.176 141.115 157.101C141.013 157.023 140.891 156.943 140.757 156.861C140.621 156.78 140.468 156.701 140.301 156.627C140.132 156.556 139.954 156.481 139.762 156.428C139.573 156.364 139.371 156.321 139.165 156.28C138.959 156.237 138.745 156.226 138.533 156.201C138.319 156.194 138.107 156.19 137.897 156.197C137.688 156.211 137.483 156.232 137.286 156.258C137.091 156.295 136.904 156.336 136.727 156.376C136.552 156.42 136.391 156.483 136.242 156.534C136.094 156.587 135.958 156.635 135.845 156.696C135.73 156.753 135.631 156.807 135.552 156.85C135.39 156.938 135.303 156.995 135.303 156.995C135.303 156.995 135.411 156.997 135.592 156.987C135.682 156.981 135.792 156.976 135.916 156.964C136.038 156.949 136.177 156.947 136.33 156.939C136.479 156.934 136.639 156.913 136.812 156.91C136.982 156.906 137.159 156.902 137.341 156.892C137.525 156.893 137.715 156.896 137.906 156.892C138.096 156.899 138.288 156.908 138.482 156.916C138.578 156.924 138.674 156.932 138.77 156.94C138.865 156.949 138.961 156.952 139.056 156.968C139.149 156.982 139.243 156.991 139.336 157.002C139.429 157.01 139.519 157.032 139.608 157.044C139.79 157.069 139.961 157.106 140.128 157.137C140.211 157.15 140.287 157.175 140.365 157.19C140.443 157.208 140.521 157.222 140.591 157.242C140.734 157.279 140.869 157.312 140.986 157.346C141.106 157.378 141.206 157.413 141.292 157.438C141.376 157.467 141.447 157.484 141.492 157.502C141.538 157.518 141.563 157.527 141.563 157.527Z" fill="black"/>
<path d="M146.792 163.464C146.792 163.464 147.147 162.809 147.822 161.561C150.35 156.887 151.417 151.401 150.053 146.266C149.32 143.504 147.81 142.161 146.581 141.51C145.321 140.844 139.592 137.226 136.154 136.181C129.947 134.296 123.337 136.258 118.693 139.483C114.048 142.708 107.99 153.273 113.013 153.381C118.037 153.49 125.673 146.423 123.403 148.245C120.155 150.853 123.335 151.129 130.604 151.378C137.872 151.626 142.182 149.097 142.182 149.097C142.182 149.097 141.908 151.322 142.979 154.617C144.049 157.914 147.02 161.668 147.02 161.668" fill="#361710"/>
<path d="M124.035 178.796L125.802 223.719C125.802 223.719 125.75 231.878 119.57 233.833C113.39 235.787 110.546 235.201 110.546 235.201C110.546 235.201 117.264 206.244 115.917 199.76C114.57 193.275 112.506 182.915 112.506 182.915L124.035 178.796Z" fill="#122738"/>
<path d="M139.508 178.676L136.904 223.719C136.904 223.719 136.956 231.878 143.136 233.833C149.317 235.787 152.16 235.201 152.16 235.201C152.16 235.201 145.441 206.244 146.788 199.76C148.136 193.275 150.2 182.915 150.2 182.915L139.508 178.676Z" fill="#122738"/>
<path d="M157.138 191.54C157.138 191.54 169.608 206.304 169.631 210.95C169.652 215.595 163.111 214.129 163.111 214.129L151.293 197.26L157.138 191.54Z" fill="#EDAC7C"/>
<path d="M157.138 191.54L151.293 197.26L155.991 203.966C155.991 203.966 158.777 199.811 163.826 200.123C160.563 195.595 157.138 191.54 157.138 191.54Z" fill="#CF9166"/>
<path d="M111.788 192.943C111.788 192.943 95.1287 202.739 90.5467 201.975C85.964 201.212 88.5147 195.013 88.5147 195.013L107.139 186.215L111.788 192.943Z" fill="#EDAC7C"/>
<path d="M97.9819 200.017C104.299 197.344 111.788 192.943 111.788 192.943L107.139 186.215L97.9772 190.542C97.9772 190.542 101.374 197.929 97.9819 200.017" fill="#CF9166"/>
<path d="M166.813 214.216C166.847 214.197 166.88 214.177 166.914 214.157C168.225 213.363 169.191 212.082 169.85 210.696C171.255 207.749 171.998 204.335 173.067 201.243C173.898 198.834 174.653 196.237 175.672 193.813C175.516 193.742 175.369 193.651 175.239 193.529C173.943 192.316 173.306 191.493 171.815 190.529C171.387 194.25 166.164 201.557 163.984 207.363C163.553 208.511 163.178 209.699 163.136 210.923C163.058 213.227 164.31 215.664 166.813 214.216Z" fill="#EEC9B1"/>
<path d="M164.044 215.174C164.694 215.564 165.775 215.85 167.262 214.993L167.378 214.924C168.712 214.117 169.846 212.788 170.66 211.082C171.611 209.088 172.264 206.897 172.897 204.779C173.218 203.699 173.552 202.583 173.913 201.536C174.168 200.801 174.414 200.049 174.663 199.29C175.224 197.581 175.803 195.816 176.498 194.16L176.836 193.355L176.041 192.996C175.963 192.961 175.902 192.922 175.852 192.875C175.509 192.553 175.212 192.259 174.934 191.984C174.147 191.204 173.468 190.53 172.301 189.776L171.089 188.992L170.924 190.426C170.704 192.341 168.984 195.503 167.164 198.852C165.668 201.6 164.124 204.441 163.145 207.049C162.724 208.169 162.287 209.502 162.24 210.893C162.175 212.797 162.884 214.476 164.044 215.174Z" fill="#EDAC7C"/>
<path d="M174.756 191.331C174.757 191.325 175.747 188.336 176.128 188.22C176.511 188.103 177.19 188.375 177.19 188.375L176.045 192.661C176.045 192.661 177.641 189.073 178.264 188.765C178.886 188.456 179.582 188.782 179.582 188.782L177.678 193.717C177.678 193.717 178.804 190.153 179.469 189.592C180.136 189.033 180.924 189.27 180.924 189.27L179.317 194.593L179.173 193.919C179.173 193.919 180.271 192.034 180.944 191.891C181.615 191.745 182.262 191.908 182.262 191.908C182.262 191.908 181.054 193.826 180.533 195.058C180.011 196.291 179.066 196.519 179.066 196.519C176.947 195.87 175.139 194.287 173.397 192.934C172.05 191.887 171.089 188.991 171.089 188.991C171.089 188.991 172.916 187.3 174.756 191.331Z" fill="#EDAC7C"/>
<path d="M88.9669 200.122C88.9419 200.093 88.9169 200.063 88.8928 200.032C87.931 198.839 87.4606 197.305 87.3124 195.777C86.9981 192.529 87.4645 189.065 87.5152 185.794C87.555 183.246 87.7321 180.546 87.6018 177.921C87.7719 177.907 87.9419 177.872 88.1057 177.801C89.7375 177.102 90.6174 176.547 92.3483 176.15C91.4802 179.794 93.8959 188.443 93.9646 194.646C93.9778 195.872 93.9248 197.116 93.5465 198.282C92.8343 200.474 90.8257 202.338 88.9669 200.122Z" fill="#EEC9B1"/>
<path d="M91.2427 201.967C90.4986 202.113 89.3854 202.013 88.2801 200.699L88.1943 200.595C87.2154 199.381 86.6023 197.745 86.4197 195.864C86.2068 193.665 86.3402 191.383 86.4689 189.176C86.5344 188.052 86.6023 186.889 86.6194 185.78C86.6311 185.003 86.6561 184.211 86.681 183.413C86.7372 181.616 86.7949 179.759 86.7068 177.965L86.6631 177.093L87.5336 177.027C87.6187 177.021 87.6896 177.005 87.7528 176.977C88.1857 176.793 88.5633 176.618 88.9198 176.453C89.9252 175.988 90.7934 175.587 92.1476 175.276L93.5547 174.952L93.2209 176.358C92.7731 178.232 93.3114 181.793 93.88 185.561C94.3473 188.654 94.8301 191.852 94.8613 194.637C94.8746 195.834 94.8301 197.235 94.3995 198.559C93.8106 200.371 92.5719 201.708 91.2427 201.967Z" fill="#EDAC7C"/>
<path d="M89.3098 175.9C89.3098 175.894 89.4002 172.747 89.0812 172.507C88.7606 172.268 88.0297 172.29 88.0297 172.29L87.6436 176.711C87.6436 176.711 87.3682 172.794 86.8877 172.291C86.408 171.789 85.6428 171.858 85.6428 171.858L85.7481 177.146C85.7481 177.146 85.9064 173.411 85.472 172.658C85.0375 171.904 84.2153 171.858 84.2153 171.858L83.9096 177.41L84.2746 176.826C84.2746 176.826 83.8854 174.68 83.3027 174.315C82.72 173.95 82.0577 173.881 82.0577 173.881C82.0577 173.881 82.5382 176.097 82.6077 177.433C82.6771 178.769 83.4875 179.305 83.4875 179.305C85.7021 179.419 87.9408 178.548 90.0407 177.87C91.6639 177.347 93.5547 174.952 93.5547 174.952C93.5547 174.952 92.4143 172.739 89.3098 175.9Z" fill="#EDAC7C"/>
<path d="M150.2 182.915C150.2 182.915 160.354 191.031 162.775 195.782L152.101 203.487L144.022 191.54L150.2 182.915Z" fill="#122738"/>
<path d="M112.507 182.914C112.507 182.914 103.775 187.193 98.5579 189.962L103.263 201.479L118.174 195.982L112.507 182.914Z" fill="#122738"/>
<path d="M132.859 341.451C131.414 341.753 129.186 340.909 127.514 343.497C125.902 345.992 122.114 345.953 121.841 345.948C124.372 346.272 127.364 346.113 128.123 345.009C129.278 343.331 132.061 342.993 132.061 342.993C133.67 342.993 134.96 341.664 134.91 340.057C134.907 339.963 134.905 339.861 134.903 339.764C134.382 340.477 133.639 341.288 132.859 341.451Z" fill="#1C0906"/>
<path d="M285.752 141.142L286.953 141.568C288.23 142.02 288.897 143.421 288.446 144.697L288.009 145.93C287.557 147.205 286.156 147.873 284.88 147.421L283.679 146.996C282.403 146.543 281.735 145.143 282.187 143.866L282.623 142.635C283.075 141.359 284.476 140.691 285.752 141.142ZM299.626 108.337C302.748 109.442 304.713 111.399 305.521 114.205C306.169 116.422 306.071 118.722 305.227 121.104C303.816 125.088 300.67 128.238 295.788 130.553C294.086 131.36 292.9 132.58 292.228 134.215C291.991 134.755 291.751 135.363 291.511 136.041C291.06 137.317 289.659 137.985 288.383 137.533L287.182 137.107C285.906 136.656 285.237 135.255 285.69 133.979C286.977 130.344 288.827 127.961 291.24 126.826C293.846 125.6 295.865 124.109 297.297 122.351C298.122 121.326 298.765 120.166 299.223 118.872C299.695 117.538 299.769 116.385 299.443 115.414C299.097 114.298 298.27 113.6 296.96 113.321C295.738 113.05 294.609 113.563 293.571 114.86C293.52 114.922 293.468 114.986 293.418 115.053C292.676 116.014 291.336 116.282 290.279 115.684L289.242 115.098C287.958 114.372 287.598 112.682 288.478 111.499C289.353 110.325 290.407 109.379 291.641 108.663C292.978 107.889 294.576 107.553 296.435 107.657C297.412 107.704 298.476 107.93 299.626 108.337Z" fill="#FCC822"/>
<path d="M201.843 144.767L203.598 145.11C205.464 145.476 206.68 147.284 206.315 149.149L205.963 150.951C205.598 152.816 203.79 154.032 201.924 153.667L200.168 153.324C198.303 152.958 197.087 151.15 197.452 149.285L197.804 147.483C198.169 145.618 199.977 144.401 201.843 144.767ZM214.358 96.3432C218.921 97.2364 222.054 99.5484 223.755 103.279C225.111 106.226 225.449 109.44 224.767 112.922C223.627 118.748 219.905 123.769 213.602 127.991C211.404 129.463 210.007 131.402 209.411 133.81C209.192 134.61 208.985 135.504 208.792 136.495C208.427 138.36 206.619 139.577 204.753 139.211L202.997 138.868C201.131 138.503 199.915 136.695 200.28 134.83C201.321 129.515 203.399 125.823 206.517 123.752C209.884 121.513 212.382 119.024 214.009 116.287C214.944 114.694 215.597 112.951 215.967 111.059C216.349 109.109 216.213 107.492 215.56 106.211C214.851 104.733 213.559 103.933 211.68 103.815C209.928 103.69 208.464 104.635 207.291 106.65C207.233 106.747 207.174 106.847 207.117 106.949C206.285 108.439 204.479 109.085 202.887 108.473L201.326 107.872C199.394 107.129 198.545 104.855 199.525 103.031C200.498 101.219 201.768 99.6888 203.334 98.4408C205.031 97.0897 207.182 96.2949 209.786 96.0562C211.152 95.9189 212.676 96.0141 214.358 96.3432Z" fill="#FCC822"/>
<path d="M173.524 175.954L174.759 175.638C176.069 175.301 177.405 176.091 177.742 177.401L178.067 178.668C178.404 179.979 177.614 181.315 176.303 181.651L175.068 181.968C173.757 182.305 172.421 181.515 172.085 180.203L171.76 178.937C171.423 177.627 172.213 176.291 173.524 175.954ZM166.738 140.988C169.946 140.164 172.668 140.691 174.905 142.568C176.678 144.048 177.88 146.01 178.508 148.459C179.56 152.552 178.706 156.922 175.946 161.567C174.983 163.186 174.679 164.861 175.034 166.592C175.138 167.172 175.279 167.811 175.458 168.507C175.795 169.819 175.005 171.154 173.693 171.49L172.459 171.808C171.148 172.144 169.813 171.354 169.476 170.043C168.517 166.308 168.722 163.297 170.092 161.012C171.572 158.54 172.415 156.176 172.622 153.917C172.735 152.606 172.622 151.286 172.281 149.956C171.928 148.585 171.346 147.587 170.533 146.963C169.625 146.23 168.549 146.112 167.305 146.612C166.14 147.069 165.489 148.124 165.352 149.779C165.344 149.86 165.337 149.941 165.331 150.024C165.252 151.237 164.29 152.206 163.079 152.3L161.891 152.392C160.421 152.505 159.179 151.304 159.25 149.831C159.321 148.368 159.668 146.995 160.293 145.713C160.971 144.325 162.11 143.155 163.71 142.204C164.547 141.697 165.556 141.291 166.738 140.988Z" fill="#FCC822"/>
<path d="M362.534 176.122L363.769 175.805C365.079 175.468 366.415 176.259 366.752 177.569L367.077 178.836C367.414 180.147 366.624 181.482 365.313 181.819L364.078 182.136C362.767 182.473 361.431 181.683 361.095 180.372L360.769 179.106C360.432 177.795 361.223 176.459 362.534 176.122ZM355.748 141.156C358.956 140.332 361.677 140.86 363.915 142.736C365.688 144.216 366.89 146.179 367.518 148.626C368.57 152.721 367.716 157.091 364.956 161.735C363.993 163.354 363.689 165.028 364.044 166.76C364.148 167.34 364.289 167.979 364.468 168.675C364.805 169.986 364.014 171.322 362.704 171.659L361.469 171.976C360.158 172.312 358.822 171.523 358.486 170.212C357.527 166.477 357.732 163.466 359.102 161.18C360.581 158.708 361.425 156.344 361.632 154.085C361.745 152.774 361.631 151.454 361.291 150.125C360.938 148.753 360.356 147.756 359.543 147.132C358.634 146.399 357.559 146.281 356.315 146.78C355.151 147.236 354.499 148.292 354.361 149.947C354.354 150.027 354.347 150.109 354.342 150.193C354.262 151.405 353.3 152.375 352.088 152.468L350.901 152.56C349.432 152.673 348.189 151.471 348.26 149.999C348.331 148.536 348.678 147.163 349.303 145.881C349.981 144.492 351.12 143.323 352.72 142.372C353.557 141.865 354.567 141.459 355.748 141.156Z" fill="#FCC822"/>
<path d="M222.729 222.448L227.931 200.475L218.47 200.117L213.498 220.401C213.147 221.833 213.229 223.336 213.732 224.72L222.775 249.604L233.605 248.559L222.729 222.448Z" fill="#A7A6BB"/>
<path d="M218.45 219.515C219.415 217.575 220.352 215.841 221.26 214.312C222.516 212.07 224.105 210.167 226.011 208.588L227.932 200.475L218.469 200.118L213.498 220.402C213.253 221.402 213.232 222.435 213.405 223.44C215.519 222.979 217.412 221.603 218.45 219.515Z" fill="#727293"/>
<path d="M231.948 294.939L231.718 296.007L230.508 301.619L225.154 326.46L224.57 329.159L224.44 329.768L223.363 341.566L222.095 341.95C218.875 342.928 215.585 342.716 212.715 341.539C211.539 341.056 210.341 339.882 209.505 338.95C208.559 337.893 207.794 336.679 207.201 335.391C205.498 331.688 205.105 327.471 205.016 323.444C204.985 322.083 204.993 320.722 204.993 319.36V306.012V294.341V290.1C205.977 290.1 207.08 289.977 207.87 289.923C208.58 289.877 209.857 289.639 210.589 289.639C213.458 288.655 216.417 288.924 219.186 288.587C220.501 288.427 221.774 288.351 222.972 288.302C224.642 288.235 226.169 288.334 227.471 288.657C230.204 289.338 231.948 291.132 231.948 294.939Z" fill="#1C1B2D"/>
<path d="M253.428 331.976L224.942 341.088L223.363 341.566L222.094 341.949C218.874 342.927 215.585 342.717 212.714 341.539C211.966 341.119 211.26 340.628 210.605 340.078C210.6 340.075 210.598 340.07 210.593 340.066C208.387 338.029 206.844 335.275 206.313 332.172L222.797 327.174L225.153 326.461L249.644 319.497L253.428 331.976Z" fill="#1C1B2D"/>
<path d="M268.514 334.031C268.148 332.442 267.508 330.475 267.366 329.854C266.822 327.472 266.017 325.147 265.333 322.804C265.083 321.946 264.777 321.353 264.672 321.166C264.619 321.079 264.626 321.084 264.672 321.166C264.748 321.291 264.948 321.599 265.339 322.134C264.623 321.156 264.049 320.234 263.576 319.124C263.042 317.872 262.632 316.617 262.324 315.368L244.713 320.628L248.7 333.983L256.963 331.515C257.473 331.363 258.009 331.653 258.162 332.162L259.012 335.011C259.275 335.894 259.655 336.708 260.113 337.46C260.592 337.293 261.081 337.153 261.581 337.046C263.765 336.575 265.846 335.802 267.936 335.054C268.114 334.706 268.304 334.364 268.514 334.031Z" fill="#361710"/>
<path d="M252.285 322.686C253.833 322.223 255.463 323.104 255.925 324.652C256.387 326.199 255.507 327.829 253.959 328.291C252.412 328.753 250.782 327.873 250.32 326.325C249.858 324.778 250.738 323.148 252.285 322.686Z" fill="white"/>
<path d="M259.088 335.244C260.835 340.636 266.576 343.674 272.035 342.044C272.545 341.891 272.835 341.355 272.683 340.846L270.034 331.975L259.088 335.244Z" fill="white"/>
<path d="M268.468 342.468C269.641 342.532 270.845 342.4 272.035 342.044C272.545 341.892 272.835 341.356 272.683 340.846L265.124 315.538C264.973 315.028 264.436 314.737 263.926 314.89L260.535 315.902L268.468 342.468Z" fill="white"/>
<path d="M253.135 252.139L251.6 255.284L243.555 271.76L230.315 298.881L205.341 288.767L212.988 271.38L218.472 258.916L226.87 239.821L253.135 252.139Z" fill="#A7A6BB"/>
<path d="M248.652 257.541C248.373 257.541 247.846 257.159 247.215 256.624C245.841 263.847 238.769 269.507 231.424 269.507C225.172 269.507 220.057 265.945 217.391 260.854L211.877 273.908L217.718 282.802C218.956 284.639 221.38 285.256 223.347 284.231L242.443 274.289L250.488 257.813C249.897 257.634 249.277 257.541 248.652 257.541Z" fill="#727293"/>
<path d="M240.486 261.506C239.04 261.506 237.663 261.297 236.354 260.942L220.326 293.771L205.739 287.863L205.341 288.767L230.314 298.882L250.241 258.067C247.446 260.208 243.999 261.506 240.486 261.506Z" fill="#727293"/>
<path d="M257.966 230.202C257.966 230.202 261.842 227.944 263.33 231.047C264.818 234.15 258.784 239.45 254.903 236.076L257.966 230.202Z" fill="#EDAC7C"/>
<path d="M256.805 232.429L255.227 235.453C258.846 237.718 263.252 233.181 261.759 231.709C260.554 230.517 257.989 231.7 256.805 232.429Z" fill="#F7A588"/>
<path d="M261.936 233.085C261.936 233.085 261.938 233.058 261.945 233.007C261.951 232.957 261.955 232.884 261.962 232.795C261.967 232.615 261.956 232.349 261.83 232.111C261.799 232.051 261.757 231.996 261.711 231.945C261.686 231.92 261.662 231.895 261.633 231.87L261.614 231.854L261.613 231.852C261.627 231.867 261.616 231.856 261.619 231.859L261.616 231.856L261.608 231.851L261.595 231.841L261.54 231.8C261.501 231.769 261.469 231.75 261.438 231.732C261.408 231.713 261.374 231.694 261.334 231.675C261.298 231.657 261.26 231.639 261.221 231.626C261.181 231.608 261.143 231.591 261.1 231.58C260.772 231.475 260.382 231.464 259.99 231.508C259.792 231.526 259.595 231.565 259.399 231.605C259.205 231.648 259.012 231.696 258.827 231.747C258.455 231.852 258.108 231.97 257.809 232.07C257.207 232.285 256.805 232.428 256.805 232.428C256.805 232.428 256.881 232.352 257.026 232.23C257.172 232.111 257.386 231.946 257.661 231.774C257.799 231.69 257.95 231.598 258.116 231.514C258.282 231.429 258.463 231.345 258.654 231.269C259.037 231.118 259.466 230.989 259.92 230.94C260.148 230.917 260.379 230.91 260.611 230.936C260.842 230.961 261.073 231.019 261.282 231.111C261.336 231.133 261.385 231.159 261.436 231.187C261.487 231.212 261.533 231.244 261.579 231.275C261.625 231.305 261.669 231.339 261.714 231.377C261.759 231.415 261.802 231.451 261.829 231.483L261.877 231.535L261.907 231.566L261.933 231.598C261.968 231.639 261.997 231.682 262.024 231.726C262.076 231.816 262.115 231.907 262.139 231.997C262.192 232.176 262.187 232.343 262.166 232.481C262.148 232.618 262.108 232.732 262.073 232.82C262.038 232.908 262 232.974 261.976 233.019C261.95 233.062 261.936 233.085 261.936 233.085Z" fill="#CF9166"/>
<path d="M234.357 220.43C234.357 220.43 233.211 216.094 229.966 217.238C226.719 218.381 227.243 226.395 232.374 226.752L234.357 220.43Z" fill="#EDAC7C"/>
<path d="M233.605 222.827L232.584 226.08C228.424 225.127 228.513 218.805 230.61 218.816C232.304 218.826 233.283 221.476 233.605 222.827Z" fill="#F7A588"/>
<path d="M229.512 219.664C229.512 219.664 229.528 219.644 229.56 219.604C229.591 219.563 229.638 219.509 229.699 219.442C229.821 219.31 230.016 219.128 230.275 219.049C230.339 219.03 230.407 219.02 230.478 219.017C230.512 219.018 230.547 219.015 230.581 219.02L230.609 219.022H230.611C230.59 219.021 230.607 219.021 230.603 219.021L230.606 219.022L230.616 219.023L230.632 219.025L230.701 219.035C230.749 219.04 230.786 219.051 230.82 219.059C230.856 219.066 230.893 219.077 230.934 219.093C230.973 219.105 231.011 219.119 231.049 219.137C231.088 219.153 231.127 219.169 231.166 219.191C231.473 219.347 231.757 219.616 232.004 219.924C232.13 220.077 232.243 220.243 232.353 220.41C232.46 220.578 232.563 220.748 232.657 220.916C232.845 221.254 233.008 221.58 233.149 221.863C233.423 222.442 233.605 222.826 233.605 222.826C233.605 222.826 233.606 222.717 233.589 222.53C233.572 222.343 233.536 222.073 233.462 221.758C233.425 221.601 233.382 221.429 233.323 221.252C233.265 221.074 233.199 220.888 233.117 220.698C232.953 220.322 232.741 219.928 232.455 219.571C232.311 219.395 232.149 219.226 231.967 219.08C231.786 218.935 231.584 218.812 231.369 218.73C231.316 218.707 231.261 218.691 231.207 218.676C231.153 218.657 231.099 218.645 231.042 218.637C230.991 218.625 230.935 218.618 230.875 218.613C230.817 218.608 230.761 218.604 230.719 218.608L230.65 218.609L230.606 218.61L230.566 218.614C230.512 218.618 230.459 218.629 230.408 218.64C230.31 218.669 230.218 218.705 230.136 218.75C229.973 218.841 229.859 218.963 229.776 219.073C229.69 219.184 229.641 219.292 229.602 219.38C229.564 219.468 229.545 219.541 229.531 219.59C229.518 219.638 229.512 219.664 229.512 219.664Z" fill="#CF9166"/>
<path d="M244.779 236.637L238.388 233.99C238.388 233.99 233.999 243.897 233.976 243.887C233.976 243.887 233.619 246.078 236.436 247.295C239.254 248.513 240.816 246.718 240.816 246.718C240.815 246.653 244.779 236.637 244.779 236.637Z" fill="#EDAC7C"/>
<path d="M242.725 241.955L235.901 239.584C235.901 239.584 234.378 243.072 234.353 243.062C234.353 243.062 234.091 244.812 236.907 246.031C239.726 247.248 241.195 245.741 241.195 245.741C241.194 245.676 242.725 241.955 242.725 241.955Z" fill="#CF9166"/>
<path d="M244.017 238.477L237.626 235.83C237.626 235.83 237.016 237.075 236.492 238.133C236.415 238.285 238.137 239.323 238.323 239.437C239.785 240.333 241.409 240.769 243.092 241.013C243.502 239.879 244.017 238.477 244.017 238.477Z" fill="#CF9166"/>
<path d="M260.754 220.175C255.146 220.175 250.448 217.313 247.615 213.05H232.167C231.882 213.979 231.623 214.992 231.398 216.114C229.7 224.572 231.917 235.577 240.446 239.108C248.977 242.639 258.991 236.87 262.289 228.901C263.492 225.994 263.682 222.912 263.036 219.994C262.282 220.112 261.519 220.175 260.754 220.175Z" fill="#3E150D"/>
<path d="M260.728 228.026C262.412 223.522 262.237 218.538 258.563 214.999C256.695 213.199 254.342 211.951 251.938 211.002C249.564 210.064 246.989 209.177 244.418 209.114C239.813 209.001 239.539 211.296 237.457 215.184C237.252 215.565 233.782 216.405 233.603 216.798C233.192 217.699 232.749 218.572 232.403 219.504C231.625 221.6 231.097 223.806 230.959 226.044C230.791 228.76 231.241 231.53 232.557 233.962C233.305 235.345 234.312 236.582 235.485 237.636C237.424 239.374 239.476 240.533 242.029 241.078C243.76 241.449 245.547 241.572 247.295 241.342C250.197 240.962 252.82 239.59 254.92 237.619C256.686 235.959 258.085 233.936 259.18 231.789C259.78 230.614 260.314 229.388 260.698 228.126C260.708 228.092 260.716 228.058 260.728 228.026Z" fill="#EDAC7C"/>
<path d="M249.324 227.012C248.753 228.253 249.214 229.684 250.355 230.208C251.496 230.732 252.883 230.149 253.456 228.908C254.028 227.666 253.566 226.237 252.426 225.712C251.284 225.188 249.896 225.77 249.324 227.012Z" fill="#CF9166"/>
<path d="M249.499 226.116C248.927 227.357 249.389 228.787 250.529 229.312C251.671 229.836 253.059 229.254 253.631 228.013C254.203 226.772 253.742 225.34 252.601 224.816C251.46 224.294 250.07 224.875 249.499 226.116Z" fill="black"/>
<path d="M250.489 225.834C250.281 226.283 250.485 226.818 250.943 227.027C251.4 227.238 251.939 227.045 252.146 226.594C252.353 226.145 252.149 225.61 251.692 225.4C251.235 225.19 250.696 225.383 250.489 225.834Z" fill="white"/>
<path d="M236.459 222.256C235.888 223.498 236.349 224.929 237.49 225.452C238.631 225.976 240.02 225.393 240.591 224.153C241.162 222.912 240.701 221.481 239.561 220.957C238.42 220.434 237.031 221.014 236.459 222.256Z" fill="#CF9166"/>
<path d="M236.701 221.73C236.129 222.972 236.591 224.402 237.732 224.926C238.873 225.451 240.261 224.869 240.832 223.627C241.405 222.387 240.943 220.954 239.803 220.431C238.662 219.908 237.272 220.49 236.701 221.73Z" fill="black"/>
<path d="M237.69 221.449C237.484 221.897 237.686 222.432 238.144 222.642C238.602 222.853 239.141 222.659 239.349 222.209C239.555 221.759 239.353 221.225 238.894 221.014C238.437 220.805 237.898 220.999 237.69 221.449Z" fill="white"/>
<path d="M244.606 222.567C244.606 222.567 243.859 227.432 242.492 226.993C239.843 226.146 239.039 231.96 243.433 230.356C245.092 229.752 245.942 222.791 245.942 222.791L244.606 222.567Z" fill="#F48470"/>
<path d="M236.115 219.635C236.115 219.635 236.197 219.566 236.363 219.476C236.446 219.432 236.549 219.374 236.671 219.328C236.792 219.275 236.931 219.228 237.089 219.182C237.245 219.136 237.417 219.097 237.6 219.065C237.785 219.037 237.983 219.009 238.188 219.005C238.391 218.99 238.603 219 238.819 219.013C239.036 219.023 239.251 219.068 239.469 219.097C239.681 219.145 239.895 219.196 240.101 219.256C240.304 219.324 240.503 219.398 240.691 219.473C240.877 219.56 241.052 219.65 241.217 219.736C241.382 219.824 241.525 219.928 241.66 220.016C241.792 220.108 241.915 220.189 242.012 220.281C242.111 220.366 242.196 220.445 242.265 220.509C242.402 220.636 242.474 220.717 242.474 220.717C242.474 220.717 242.366 220.69 242.189 220.633C242.1 220.604 241.992 220.571 241.872 220.528C241.756 220.482 241.617 220.444 241.468 220.397C241.32 220.353 241.167 220.291 240.998 220.244C240.828 220.197 240.654 220.146 240.474 220.089C240.291 220.042 240.104 219.998 239.914 219.944C239.723 219.903 239.53 219.861 239.335 219.82C239.236 219.803 239.139 219.787 239.042 219.771C238.944 219.754 238.849 219.732 238.751 219.724C238.654 219.714 238.558 219.7 238.464 219.686C238.369 219.67 238.276 219.669 238.182 219.658C237.996 219.636 237.816 219.629 237.643 219.617C237.556 219.608 237.473 219.613 237.392 219.608C237.31 219.606 237.231 219.601 237.154 219.603C237.002 219.601 236.86 219.601 236.736 219.604C236.608 219.605 236.499 219.613 236.405 219.615C236.317 219.623 236.241 219.622 236.193 219.629C236.141 219.633 236.115 219.635 236.115 219.635Z" fill="black"/>
<path d="M255.83 223.615C255.83 223.615 255.783 223.519 255.67 223.366C255.61 223.294 255.543 223.199 255.452 223.105C255.362 223.008 255.253 222.906 255.132 222.799C255.009 222.693 254.868 222.587 254.712 222.483C254.554 222.381 254.387 222.274 254.202 222.186C254.022 222.088 253.825 222.009 253.624 221.933C253.423 221.852 253.209 221.804 252.999 221.741C252.784 221.696 252.57 221.654 252.356 221.625C252.142 221.603 251.93 221.588 251.727 221.579C251.524 221.582 251.327 221.59 251.141 221.601C250.956 221.614 250.783 221.649 250.623 221.674C250.464 221.703 250.319 221.728 250.193 221.769C250.067 221.806 249.958 221.844 249.869 221.873C249.69 221.933 249.592 221.976 249.592 221.976C249.592 221.976 249.701 221.997 249.886 222.018C249.979 222.029 250.09 222.043 250.217 222.053C250.344 222.059 250.485 222.081 250.64 222.1C250.793 222.121 250.958 222.128 251.132 222.155C251.305 222.182 251.485 222.208 251.672 222.23C251.858 222.263 252.049 222.301 252.243 222.329C252.434 222.37 252.627 222.412 252.822 222.455C252.918 222.48 253.013 222.505 253.109 222.53C253.203 222.556 253.3 222.575 253.393 222.608C253.485 222.639 253.578 222.666 253.67 222.691C253.763 222.717 253.85 222.754 253.938 222.783C254.117 222.839 254.284 222.907 254.447 222.969C254.529 222.995 254.602 223.034 254.678 223.064C254.755 223.094 254.83 223.123 254.897 223.156C255.036 223.217 255.166 223.274 255.278 223.331C255.394 223.384 255.49 223.436 255.572 223.476C255.652 223.521 255.72 223.552 255.763 223.577C255.807 223.601 255.83 223.615 255.83 223.615Z" fill="black"/>
<path d="M260.899 228.263C260.899 228.263 261.83 226.639 262.733 224.411C261.783 226.664 260.899 228.263 260.899 228.263Z" fill="#CF9166"/>
<path d="M262.144 212.337C261.226 212.428 260.271 212.407 259.353 212.426C257.149 212.475 254.943 212.41 252.738 212.451C251.426 212.475 250.116 212.532 248.808 212.635C248.696 212.643 245.661 212.954 245.755 212.915C243.493 213.224 241.239 213.618 238.985 213.963C238.111 214.097 237.253 214.171 236.403 214.21C238.954 214.749 242.258 214.593 244.562 214.368C244.438 214.406 244.328 214.436 244.194 214.482C241.813 215.291 243.781 217.94 247.958 219.721C253.739 222.185 258.977 221.208 258.977 221.208C258.977 221.208 258.043 222.904 257.84 225.891C257.702 227.937 258.208 230.441 258.541 231.817C258.695 232.451 258.811 232.846 258.811 232.846L258.051 234.213C258.051 234.213 259.732 231.372 262.729 227.675C268.976 219.97 268.318 215.499 267.112 213.325C265.419 213.237 263.736 212.917 262.144 212.337Z" fill="#361710"/>
<path d="M261.738 222.139C261.738 222.139 249.308 222.675 228.559 214.424C218.631 210.476 234.872 210.195 234.872 210.195L254.084 209.756L261.738 222.139Z" fill="#2D2C44"/>
<path d="M264.277 225.763C264.277 225.763 263.55 224.23 261.738 222.139C259.653 219.732 256.132 216.585 250.635 214.189C240.369 209.715 234.872 210.196 234.872 210.196C234.872 210.196 235.708 204.167 243.655 201.166C246.742 200 249.922 199.687 252.962 200.182C258.064 201.013 262.774 204.114 266.002 209.269C271.127 217.453 264.277 225.763 264.277 225.763Z" fill="#2D2C44"/>
<path d="M261.738 222.14C259.654 219.732 256.132 216.585 250.636 214.189C240.369 209.714 234.872 210.196 234.872 210.196C234.872 210.196 235.708 204.167 243.655 201.165C246.742 199.999 249.923 199.687 252.963 200.182C255.592 201.324 258.078 203.101 260.261 205.507C266.104 211.95 262.704 220.15 261.738 222.14Z" fill="#A7A6BB"/>
<path d="M259.92 230.94C259.92 230.94 251.405 234.296 247.92 236.861C247.005 237.536 246.514 239.821 243.525 239.821C239.823 239.821 240.406 238.054 237.98 236.379C236.622 235.441 233.743 234.491 232.927 233.314C231.132 230.727 231.145 222.408 231.145 222.408C231.145 222.408 228.677 228.859 230.557 234.981C231.365 237.611 232.391 244.451 241.523 244.789C250.16 245.108 251.507 242.45 253.192 240.713C254.877 238.979 259.92 230.94 259.92 230.94Z" fill="#361710"/>
<path d="M201.399 225.036L204.838 226.747C208.491 228.563 209.98 232.997 208.164 236.65L206.409 240.178C204.593 243.831 200.159 245.32 196.506 243.503L193.067 241.792C189.414 239.976 187.925 235.542 189.741 231.889L191.496 228.362C193.312 224.709 197.746 223.22 201.399 225.036Z" fill="#FCC822"/>
<path d="M209.861 247.769L208.667 245.141C208.369 244.26 208.259 243.328 208.341 242.403L208.872 236.492C208.943 235.72 208.703 234.951 208.207 234.356L203.447 228.636C203.143 228.271 202.57 228.315 202.326 228.722C202.181 228.965 202.198 229.27 202.369 229.495L204.576 232.388L202.53 230.762C202.134 230.448 201.545 230.614 201.372 231.09C201.269 231.373 201.349 231.691 201.573 231.892L204.768 234.777L201.751 232.818C201.336 232.548 200.776 232.736 200.606 233.202C200.479 233.552 200.621 233.943 200.943 234.132L203.714 235.747L200.76 234.76C200.404 234.641 200.017 234.828 199.889 235.181C199.771 235.506 199.91 235.868 200.214 236.03L201.914 236.935C203.042 237.538 203.65 238.803 203.414 240.059L202.861 243.01C202.548 244.682 202.884 246.411 203.801 247.843L205.3 250.184L209.861 247.769Z" fill="#EDAC7C"/>
<path d="M247.27 252.258L226.833 263.2C225.478 263.927 223.79 263.488 222.959 262.194L211.012 243.777L202.119 248.622L219.327 276.765C220.567 278.603 222.989 279.218 224.955 278.195L253.2 263.489C255.998 262.032 257.302 258.742 256.263 255.764C254.978 252.081 250.708 250.417 247.27 252.258Z" fill="#A7A6BB"/>
<path d="M235.207 288.681C235.207 299.813 226.183 308.841 215.046 308.841L195.553 307.101L181.627 305.856V302.607C181.627 294.915 187.862 288.681 195.553 288.681H235.207Z" fill="#2D2C44"/>
<path d="M195.153 288.681V342.775L182.936 340.248L181.377 302.607C181.377 294.915 187.281 288.681 195.153 288.681Z" fill="#2D2C44"/>
<path d="M174.289 333.07C168.622 333.202 164.068 337.833 164.068 343.531C164.068 344.063 164.499 344.494 165.031 344.494H174.289V333.07Z" fill="white"/>
<path d="M181.715 323.478V332.102C181.715 332.633 181.284 333.064 180.752 333.064H174.534C174.214 333.064 173.898 333.079 173.585 333.107V341.501H195.653V323.478H181.715Z" fill="#361710"/>
<path d="M191.513 330.146C191.513 331.761 190.204 333.07 188.589 333.07C186.974 333.07 185.664 331.761 185.664 330.146C185.664 328.53 186.974 327.221 188.589 327.221C190.204 327.221 191.513 328.53 191.513 330.146Z" fill="white"/>
<path d="M164.683 339.992C164.286 341.097 164.067 342.288 164.067 343.531C164.067 344.063 164.499 344.493 165.031 344.493H194.689C195.221 344.493 195.653 344.063 195.653 343.531V339.992H164.683Z" fill="white"/>
<path d="M254.846 131.938C263.781 136.381 268.95 142.949 270.349 151.638C271.479 158.507 270.349 165.351 266.958 172.171C261.285 183.576 250.726 191.855 235.28 197.006C229.893 198.801 225.9 202.022 223.296 206.666C222.388 208.195 221.452 209.928 220.487 211.87C218.67 215.522 214.236 217.011 210.584 215.194L207.144 213.484C203.491 211.668 202.002 207.233 203.818 203.581C208.994 193.174 215.396 186.716 223.026 184.203C231.27 181.483 237.854 177.754 242.778 173.015C245.62 170.249 247.963 167.015 249.805 163.31C251.705 159.489 252.343 156.067 251.72 153.043C251.094 149.58 248.873 147.191 245.053 145.878C241.498 144.624 237.932 145.746 234.358 149.248C234.18 149.417 234.003 149.59 233.827 149.769C231.258 152.378 227.153 152.69 224.206 150.516L221.318 148.386C217.741 145.748 217.277 140.559 220.343 137.342C223.388 134.144 226.886 131.701 230.836 130.008C235.118 128.178 240.022 127.756 245.546 128.743C248.452 129.236 251.553 130.3 254.846 131.938Z" fill="#FCC822"/>
<path d="M240.534 237.203C240.775 237.203 240.982 237.039 241.043 236.806C241.283 235.876 242.122 235.188 243.127 235.188C244.134 235.188 244.971 235.876 245.212 236.806C245.272 237.039 245.48 237.203 245.721 237.203C246.059 237.203 246.325 236.887 246.243 236.559C245.891 235.162 244.634 234.126 243.127 234.126C241.62 234.126 240.364 235.162 240.012 236.559C239.929 236.887 240.195 237.203 240.534 237.203Z" fill="#F05B4E"/>
<path d="M249.892 236.272C249.401 233.938 247.749 232.01 245.534 231.167C245.118 231.008 244.645 231.083 244.315 231.381C243.949 231.711 243.549 232.064 243.127 232.064C242.684 232.064 242.265 231.692 241.884 231.348C241.559 231.054 241.097 230.972 240.683 231.121C238.688 231.837 237.099 233.438 236.411 235.479C236.198 236.111 236.508 236.843 237.147 237.035C237.772 237.222 238.39 236.871 238.578 236.285C239.218 234.291 241.127 232.899 243.314 233.025C245.502 233.152 247.239 234.755 247.644 236.808C247.747 237.323 248.179 237.705 248.702 237.735H248.703C249.472 237.735 250.051 237.025 249.892 236.272Z" fill="#361710"/>
<path d="M205.341 288.768C205.341 288.768 219.953 289.158 226.316 294.556C232.678 299.954 234.124 300.051 234.124 300.051C234.124 300.051 235.047 289.187 238.49 282.134C241.934 275.082 237.594 277.012 236.727 278.072C235.859 279.132 224.966 288.282 224.966 288.282L222.811 288.682L205.341 288.768Z" fill="#727293"/>
<path d="M291.985 181.912C291.985 181.912 291.023 185.604 292.607 186.447C294.193 187.29 298.245 187.731 298.286 186.447C298.326 185.163 299.45 183.918 297.443 183.035C295.436 182.153 293.069 181.912 293.069 181.912H291.985Z" fill="#C9BDBD"/>
<path d="M330.776 138.627C330.735 138.635 330.694 138.644 330.652 138.653C330.325 138.723 330.134 138.79 330.134 138.79V138.804C330.056 138.833 329.978 138.857 329.902 138.891C325.683 140.777 325.683 144.638 325.683 144.638L328.286 152.359C328.286 152.359 329.014 152.394 330.104 152.294L330.028 187.264L330.407 187.481C333.233 189.103 336.706 189.11 339.538 187.498L339.95 187.264C339.95 187.264 340.455 173.216 340.642 154.122C340.802 137.869 333.079 138.176 330.776 138.627Z" fill="#161616"/>
<path d="M324.631 144.14L326.191 142.083C326.389 141.823 326.755 141.761 327.024 141.947C328.728 143.118 334.283 147.367 333.524 152.484L324.631 144.14Z" fill="white"/>
<path d="M318.083 176.745C318.086 176.725 319.678 176.546 319.774 176.529C321.165 176.273 322.531 175.854 323.827 175.288C327.835 173.536 330.916 170.304 332.44 166.196C333.533 163.246 333.841 160.054 333.721 156.927C333.548 152.34 332.488 147.328 328.449 144.525C325.009 142.139 323.324 142.863 323.324 142.863C323.324 142.863 318.085 176.733 318.083 176.745Z" fill="#161616"/>
<path d="M319.019 170.87L312.013 170.426C312.013 170.426 311.049 181.38 311.022 181.378C311.022 181.378 311.398 183.598 314.504 183.845C317.61 184.089 318.522 181.852 318.522 181.852C318.499 181.79 319.019 170.87 319.019 170.87Z" fill="#F8D0B7"/>
<path d="M314.755 179.357C312.455 179.175 311.621 178.37 311.343 177.965C311.633 174.75 312.013 170.426 312.013 170.426L319.019 170.87C319.019 170.87 318.82 175.054 318.674 178.257C318.483 178.507 317.503 179.573 314.755 179.357Z" fill="#EFBDAC"/>
<path d="M316.023 174.373L309.016 173.928C309.016 173.928 308.839 175.324 308.683 176.511C308.659 176.683 310.653 177.115 310.87 177.164C312.567 177.544 314.27 177.431 315.967 177.111C315.988 175.888 316.023 174.373 316.023 174.373Z" fill="#CF9166"/>
<path d="M300.554 154.313C300.75 152.906 300.899 151.712 302.032 150.381C304.801 147.129 309.221 145.273 313.463 145.28C319.846 145.291 326.463 147.737 328.169 154.413C328.754 156.7 328.768 159.097 328.542 161.447C328.186 165.152 327.194 168.897 324.958 171.874C322.279 175.44 317.852 177.626 313.392 177.584C306.58 177.521 301.129 173.861 299.297 167.92C297.978 163.643 299.21 160.292 300.228 156.133C300.388 155.477 300.475 154.878 300.554 154.313Z" fill="#F8D0B7"/>
<path d="M330.916 162.22C330.932 162.241 330.952 162.269 330.952 162.269C330.952 162.269 330.948 162.239 330.941 162.184C330.933 162.131 330.921 162.048 330.887 161.947C330.852 161.847 330.805 161.721 330.71 161.588C330.618 161.454 330.487 161.304 330.278 161.179C330.176 161.115 330.055 161.06 329.922 161.013C329.855 160.991 329.785 160.971 329.711 160.957L329.656 160.946L329.594 160.936L329.499 160.922C329.441 160.911 329.362 160.906 329.28 160.903C329.197 160.897 329.118 160.895 329.042 160.898C328.963 160.899 328.884 160.901 328.806 160.911C328.727 160.918 328.647 160.926 328.569 160.941C328.479 160.956 328.391 160.982 328.302 161.003C328.31 160.404 328.289 159.805 328.23 159.212C329.006 159.102 329.875 159.177 330.838 159.581C334.898 161.287 332.888 169.07 326.483 169.394C326.648 169.05 326.797 168.7 326.936 168.347C330.367 167.351 331.63 163.972 330.916 162.22Z" fill="#F8D0B7"/>
<path d="M328.926 161.434C328.983 161.421 329.04 161.414 329.098 161.407C329.157 161.397 329.211 161.392 329.262 161.39C329.312 161.386 329.364 161.382 329.433 161.385L329.53 161.386L329.554 161.387H329.566H329.572C329.567 161.386 329.589 161.389 329.561 161.385H329.563L329.6 161.389C329.652 161.391 329.699 161.399 329.748 161.404C329.844 161.42 329.937 161.442 330.022 161.474C330.365 161.605 330.597 161.834 330.738 161.996C330.809 162.079 330.863 162.145 330.898 162.195C330.909 162.211 330.909 162.209 330.916 162.22C331.63 163.971 330.367 167.351 326.936 168.346C327.59 166.68 327.976 164.917 328.169 163.162C328.224 162.658 328.264 162.154 328.287 161.647C328.441 161.581 328.596 161.512 328.753 161.472C328.81 161.455 328.868 161.445 328.926 161.434Z" fill="#FFB7A1"/>
<path d="M328.806 160.91C328.885 160.9 328.963 160.898 329.041 160.897C329.118 160.894 329.197 160.895 329.279 160.902C329.362 160.906 329.441 160.911 329.499 160.922L329.594 160.936L329.655 160.945L329.711 160.957C329.784 160.97 329.855 160.991 329.922 161.012C330.056 161.059 330.176 161.115 330.279 161.179C330.486 161.303 330.618 161.453 330.711 161.587C330.805 161.721 330.852 161.846 330.886 161.946C330.921 162.048 330.933 162.13 330.942 162.184C330.948 162.239 330.951 162.268 330.951 162.268C330.951 162.268 330.931 162.24 330.917 162.22C330.908 162.209 330.91 162.211 330.897 162.194C330.864 162.145 330.808 162.079 330.739 161.996C330.597 161.834 330.365 161.605 330.021 161.474C329.937 161.442 329.843 161.42 329.748 161.404C329.699 161.399 329.651 161.391 329.601 161.388L329.563 161.385H329.561C329.588 161.388 329.566 161.386 329.572 161.387H329.566H329.554L329.531 161.386L329.434 161.385C329.364 161.381 329.311 161.386 329.261 161.39C329.211 161.392 329.157 161.397 329.098 161.407C329.04 161.414 328.983 161.421 328.925 161.434C328.868 161.445 328.81 161.455 328.754 161.472C328.595 161.512 328.442 161.581 328.286 161.647C328.297 161.433 328.3 161.218 328.303 161.003C328.392 160.981 328.479 160.956 328.569 160.941C328.647 160.926 328.727 160.918 328.806 160.91Z" fill="#FFA792"/>
<path d="M310.402 161.197C310.402 161.197 310.58 164.26 309.16 163.931C306.409 163.3 306.089 169.248 310.397 167.254C312.023 166.502 311.773 161.311 311.773 161.311L310.402 161.197Z" fill="#F48470"/>
<path d="M305.655 169.322C305.574 170.598 304.457 171.566 303.159 171.483C301.861 171.401 300.873 170.3 300.953 169.024C301.035 167.748 302.153 166.781 303.451 166.862C304.749 166.945 305.736 168.046 305.655 169.322Z" fill="#FFB7A1"/>
<path d="M322.608 168.904C322.527 170.181 321.409 171.148 320.109 171.065C318.813 170.983 317.826 169.884 317.906 168.607C317.988 167.331 319.105 166.364 320.402 166.446C321.701 166.528 322.689 167.629 322.608 168.904Z" fill="#FFB7A1"/>
<path d="M301.474 159.335C301.474 159.335 301.54 159.248 301.684 159.122C301.756 159.06 301.845 158.98 301.956 158.907C302.064 158.828 302.192 158.748 302.337 158.668C302.481 158.588 302.643 158.509 302.817 158.438C302.994 158.369 303.182 158.296 303.385 158.246C303.584 158.186 303.795 158.149 304.011 158.113C304.228 158.074 304.451 158.071 304.673 158.05C304.894 158.051 305.117 158.053 305.335 158.066C305.552 158.088 305.765 158.117 305.968 158.149C306.17 158.194 306.365 158.243 306.546 158.29C306.731 158.342 306.895 158.412 307.048 158.47C307.2 158.531 307.34 158.584 307.457 158.652C307.575 158.715 307.676 158.774 307.759 158.822C307.922 158.917 308.011 158.98 308.011 158.98C308.011 158.98 307.898 158.978 307.71 158.961C307.617 158.954 307.503 158.944 307.373 158.929C307.248 158.909 307.101 158.902 306.944 158.89C306.787 158.879 306.621 158.852 306.444 158.844C306.266 158.834 306.082 158.824 305.891 158.807C305.699 158.801 305.504 158.801 305.304 158.79C305.106 158.792 304.905 158.794 304.703 158.797C304.602 158.801 304.501 158.808 304.402 158.813C304.302 158.819 304.202 158.819 304.104 158.832C304.005 158.843 303.908 158.851 303.811 158.859C303.713 158.864 303.621 158.885 303.525 158.895C303.337 158.915 303.156 158.947 302.982 158.974C302.895 158.986 302.813 159.009 302.732 159.022C302.65 159.038 302.571 159.05 302.496 159.071C302.345 159.103 302.205 159.134 302.082 159.166C301.956 159.195 301.849 159.227 301.757 159.251C301.671 159.279 301.596 159.294 301.55 159.312C301.5 159.327 301.474 159.335 301.474 159.335Z" fill="#161616"/>
<path d="M320.076 158.316C320.076 158.316 320.006 158.232 319.859 158.109C319.783 158.051 319.693 157.973 319.582 157.903C319.47 157.828 319.338 157.752 319.193 157.676C319.047 157.601 318.882 157.529 318.703 157.463C318.523 157.401 318.334 157.334 318.13 157.291C317.93 157.236 317.717 157.206 317.5 157.178C317.282 157.146 317.059 157.149 316.838 157.135C316.615 157.143 316.394 157.153 316.176 157.174C315.959 157.203 315.747 157.238 315.544 157.277C315.344 157.328 315.152 157.383 314.971 157.437C314.792 157.493 314.629 157.57 314.476 157.632C314.326 157.698 314.189 157.757 314.075 157.827C313.959 157.894 313.859 157.957 313.78 158.007C313.617 158.108 313.53 158.174 313.53 158.174C313.53 158.174 313.643 158.17 313.831 158.146C313.924 158.135 314.038 158.122 314.166 158.103C314.292 158.078 314.437 158.067 314.594 158.048C314.749 158.034 314.916 158.002 315.093 157.986C315.271 157.972 315.454 157.955 315.643 157.932C315.835 157.922 316.032 157.913 316.231 157.895C316.429 157.891 316.629 157.887 316.831 157.882C316.932 157.884 317.033 157.887 317.133 157.889C317.232 157.892 317.331 157.888 317.431 157.9C317.53 157.908 317.628 157.912 317.725 157.915C317.822 157.919 317.917 157.936 318.011 157.943C318.201 157.956 318.381 157.983 318.557 158.005C318.644 158.011 318.726 158.034 318.808 158.044C318.891 158.057 318.971 158.068 319.046 158.083C319.197 158.112 319.339 158.138 319.462 158.167C319.59 158.191 319.697 158.22 319.788 158.24C319.877 158.266 319.952 158.28 320 158.295C320.049 158.308 320.076 158.316 320.076 158.316Z" fill="#050607"/>
<path d="M315.62 161.32C315.383 162.195 315.903 163.082 316.779 163.301C317.655 163.52 318.557 162.989 318.791 162.113C319.029 161.239 318.51 160.35 317.633 160.131C316.757 159.913 315.855 160.445 315.62 161.32Z" fill="#050607"/>
<path d="M316.28 161.027C316.195 161.343 316.41 161.672 316.762 161.759C317.113 161.848 317.467 161.662 317.553 161.345C317.638 161.028 317.422 160.7 317.07 160.612C316.719 160.523 316.365 160.71 316.28 161.027Z" fill="white"/>
<path d="M306.307 160.938C306.543 161.813 306.024 162.701 305.148 162.92C304.271 163.14 303.37 162.608 303.134 161.732C302.898 160.857 303.417 159.969 304.293 159.75C305.169 159.532 306.071 160.064 306.307 160.938Z" fill="#050607"/>
<path d="M305.647 160.646C305.732 160.962 305.516 161.291 305.165 161.378C304.813 161.467 304.459 161.281 304.374 160.963C304.288 160.647 304.505 160.319 304.856 160.231C305.207 160.143 305.561 160.329 305.647 160.646Z" fill="white"/>
<path d="M321.495 153.821C321.495 153.821 326.99 170.638 321.962 175.666C321.962 175.666 329.265 171.664 329.93 153.311L321.495 153.821Z" fill="#161616"/>
<path d="M328.902 157.325C330.789 157.021 330.921 148.973 330.634 147.876C329.65 144.104 324.265 141.787 320.977 140.553C315.797 138.612 309.286 138.293 304.601 141.657C302.091 143.461 300.859 146 299.688 148.766C299.472 149.276 297.132 155.709 297.118 155.709C297.119 155.709 314.953 156.617 314.813 156.609L316.498 156.695C316.498 156.695 327.575 157.538 328.902 157.325Z" fill="#161616"/>
<path d="M342.915 207.36H342.799C341.436 207.367 340.11 207.846 338.933 208.548C340.183 210.185 341.586 211.693 343.391 212.741C343.511 212.811 343.625 212.871 343.737 212.927C343.969 212.658 344.187 212.378 344.38 212.079C345.632 210.14 345.81 207.405 342.915 207.36Z" fill="#E8B79E"/>
<path d="M303.39 257.013C303.39 257.013 304.283 284.458 304.343 287.014C304.402 289.568 307.955 312.442 308.385 318.047C308.815 323.652 307.276 335.167 306.029 339.758L304.515 343.653C304.515 343.653 309.372 345.596 311.259 344.751C314.229 343.418 314.825 338.699 315.573 335.923C316.365 332.979 316.953 329.93 316.827 326.868C316.706 323.923 315.088 321.687 314.472 318.88C312.792 311.235 315.652 303.325 316.06 295.676C316.424 288.852 315.507 282.043 314.486 275.312C313.532 269.033 316.439 263.473 316.138 257.263C316.138 257.263 304.558 249.014 303.259 255.712" fill="#EFC8B1"/>
<path d="M305.494 341.134C305.419 341.472 306.41 341.83 306.635 341.931C308.271 342.672 310.865 343.388 312.212 341.727C313.857 339.706 314.235 336.199 314.932 333.758C315.721 330.995 316.542 327.818 316.297 324.916L316.182 323.549C316.182 323.549 320.03 325.9 319.788 329.164C319.546 332.428 316.263 337.901 316.058 341.315C315.932 343.419 314.908 345.511 313.19 346.76C310.563 348.67 306.027 348.534 303.219 347.094C302.181 346.562 301.362 344.087 302.722 343.461C304.418 342.682 307.162 334.71 306.875 334.442L306.029 339.759C306.029 339.759 305.494 341.131 305.494 341.134Z" fill="#122738"/>
<path d="M319.606 329.97C319.606 329.97 318.515 336.997 319.04 340.928L317.896 341.306L316.755 336.034L319.606 329.97Z" fill="#312E2F"/>
<path d="M329.433 329.971C329.433 329.971 328.511 340.49 329.037 344.422L327.365 344.469L326.582 336.035L329.433 329.971Z" fill="#0C1B26"/>
<path d="M312.093 257.013C312.093 257.013 314.11 284.458 314.169 287.014C314.229 289.568 317.781 312.442 318.212 318.047C318.642 323.652 317.103 335.167 315.856 339.758L314.342 343.653C314.342 343.653 319.199 345.596 321.086 344.751C324.056 343.418 324.652 338.699 325.4 335.923C326.192 332.979 326.779 329.93 326.654 326.868C326.533 323.923 324.914 321.687 324.297 318.88C322.619 311.235 325.478 303.325 325.886 295.676C326.251 288.852 325.333 282.043 324.312 275.312C323.359 269.033 326.265 263.473 325.965 257.263C325.965 257.263 313.262 249.014 311.963 255.712" fill="#F8D0B7"/>
<path d="M315.321 341.134C315.246 341.472 316.237 341.83 316.462 341.931C318.097 342.672 320.692 343.388 322.039 341.727C323.685 339.706 324.062 336.199 324.758 333.758C325.548 330.995 326.368 327.818 326.124 324.916L326.009 323.549C326.009 323.549 329.857 325.9 329.615 329.164C329.372 332.428 326.09 337.901 325.885 341.315C325.758 343.419 324.736 345.511 323.016 346.76C320.39 348.67 315.854 348.534 313.046 347.094C312.008 346.562 311.189 344.087 312.549 343.461C314.245 342.682 316.988 334.71 316.702 334.442L315.856 339.759C315.856 339.759 315.321 341.131 315.321 341.134Z" fill="#122738"/>
<path d="M324.932 198.044C325.887 193.532 329.227 188.92 329.432 187.907C324.166 182.646 319.466 180.778 318.36 180.433L311.812 180.462C310.06 181.174 308.295 181.851 306.538 182.548C305.877 182.81 305.26 182.948 304.843 183.523C304.333 184.226 304.073 185.432 303.737 186.248C302.818 188.478 301.871 190.742 301.417 193.132C301.124 194.675 301.489 196.337 302.114 198.044H324.932Z" fill="#F8D0B7"/>
<path d="M331.49 232.513C329.411 226.564 326.606 220.82 325.558 214.564C321.913 216.109 308.056 215.637 305.355 213.248C304.763 221.022 300.776 228.453 298.883 236.022C297.7 240.752 296.712 245.562 296.535 250.446C296.351 255.557 298.192 271.069 298.567 276.778C313.575 286.489 330.632 277.175 331.312 275.414C334.878 266.18 334.704 252.368 333.822 242.421C333.518 238.984 332.61 235.719 331.49 232.513Z" fill="#122738"/>
<path d="M298.883 236.021C298.804 236.334 298.73 236.649 298.654 236.963C303.987 239.817 324.775 241.535 332.627 236.11C332.29 234.9 331.905 233.702 331.489 232.513C329.492 226.799 326.83 221.271 325.694 215.299L322.515 215.226C319.231 215.606 314.498 215.513 310.763 214.96L306.4 214.861C306.4 214.861 304.828 226.773 299.767 232.919C299.443 233.952 299.142 234.985 298.883 236.021Z" fill="#0B1C28"/>
<path d="M311.332 191.804C311.318 191.579 311.291 191.361 311.262 191.142C311.256 191.105 311.251 191.07 311.244 191.033C310.861 188.462 309.389 186.31 307.499 184.876C305.124 183.158 302.595 181.678 300.106 180.139C295.108 177.107 290.823 174.665 285.767 171.727C284.2 168.835 282.608 165.961 280.952 163.132C280.115 161.719 279.278 160.306 278.338 158.964C277.278 157.729 276.506 156.298 275.75 154.825C274.224 151.908 272.909 148.797 270.808 146.28C269.661 144.96 268.412 143.758 267.105 142.626C267.223 142.83 271.178 149.729 270.773 156.642C270.773 156.642 270.765 156.644 270.76 156.645C271.234 156.925 271.705 157.219 272.18 157.497L272.693 157.808L272.948 157.963C273.044 158.012 273.125 158.071 273.122 158.123C273.255 158.399 273.387 158.867 273.504 159.255C273.975 160.891 274.461 162.533 275.037 164.128C276.182 167.314 277.618 170.383 279.607 173.005C280.601 174.306 281.718 175.527 282.992 176.522C284.244 177.534 285.516 178.522 286.796 179.496C289.359 181.442 291.219 182.795 293.901 184.572C296.586 186.344 299.327 188.036 302.187 189.527C305.077 190.962 308.031 192.313 311.347 192.817C311.35 192.76 311.343 192.704 311.344 192.647C311.354 192.486 311.359 192.195 311.332 191.804Z" fill="#EFC8B1"/>
<path d="M268.914 146.303C268.825 147.299 268.27 149.84 267.894 150.744C267.179 150.636 266.479 150.342 265.859 149.968C265.17 149.576 264.64 148.998 263.977 148.487C263.642 148.244 263.281 148.03 262.871 147.889C262.459 147.78 261.993 147.647 261.448 147.994C261.385 148.043 261.296 148.117 261.256 148.258C261.203 148.406 261.244 148.45 261.244 148.547C261.28 148.68 261.33 148.79 261.384 148.888C261.494 149.081 261.615 149.256 261.743 149.419C261.998 149.749 262.273 150.052 262.553 150.349C263.651 151.545 264.89 152.599 266.027 153.723L266.867 154.6C267.169 154.9 267.523 155.13 267.89 155.323C268.624 155.709 269.411 155.945 270.123 156.282C270.378 156.412 270.627 156.563 270.878 156.713V149.094C269.906 148.806 269.77 146.797 268.914 146.303Z" fill="#EFC8B1"/>
<path d="M293.926 176.463C293.926 176.463 295.256 178.622 294.835 182.956C294.414 187.289 292.607 186.447 292.607 186.447C292.607 186.447 297.122 189.878 301.636 192.286C306.151 194.694 305.97 183.197 305.97 183.197C305.97 183.197 294.402 175.027 293.926 176.463Z" fill="white"/>
<path d="M305.266 214.553C305.249 214.861 305.113 215.25 305.33 215.4C312.266 220.169 325.713 215.194 325.618 214.604C325.151 211.758 325.075 208.82 325.622 205.98C326.852 199.584 331.572 193.386 329.507 186.655C329.499 186.632 329.492 186.607 329.483 186.584C328.788 184.511 321.938 182.107 321.341 181.721C321.543 182.247 320.99 182.855 320.8 183.092C319.866 184.253 318.397 184.979 316.995 185.391C315.367 185.87 313.659 186.063 311.965 185.997C311.014 185.96 310.06 185.838 309.128 185.648C308.557 185.532 307.851 185.349 307.469 184.879C306.768 184.015 307.431 182.759 307.864 181.923C307.864 181.923 307.035 182.233 305.971 182.253C304.652 182.278 300.614 179.6 300.614 179.6C299.871 181.889 301.008 190.996 300.124 193.214C299.567 194.609 299.275 196.146 299.547 197.624C299.988 200.012 301.776 201.829 302.542 204.092C303.514 206.965 305.431 211.424 305.266 214.553Z" fill="white"/>
<path d="M305.008 211.812C305.008 211.812 303.063 226.576 296.522 231.713C291.625 235.558 322.288 239.925 331.625 232.781C332.022 232.476 332.08 231.896 331.756 231.515C331.241 230.909 330.448 229.652 329.431 227.046C327.54 222.202 325.331 212.273 325.331 212.273L305.008 211.812Z" fill="white"/>
<path d="M346.139 212.786C345.641 213.41 344.78 213.548 343.392 212.741C341.514 211.65 340.069 210.065 338.782 208.352C337.141 206.167 335.188 204.23 333.321 202.229C330.799 199.527 328.154 196.873 325.839 193.989C323.949 191.635 322.441 189.847 323.324 186.56C323.459 186.06 323.654 185.561 323.997 185.168C324.517 184.571 325.343 184.416 326.097 184.506C327.975 184.731 329.232 186.053 330.41 187.369C331.638 188.74 333.002 190.002 334.289 191.319C337.035 194.135 339.72 197.036 341.985 200.256C343.461 202.357 345.035 204.434 346.058 206.809C347.098 209.222 347.155 211.515 346.139 212.786Z" fill="#EFC8B1"/>
<path d="M342.915 207.36H342.799C341.436 207.367 340.11 207.846 338.933 208.548C340.183 210.185 341.586 211.693 343.391 212.741C343.511 212.811 343.625 212.871 343.737 212.927C343.969 212.658 344.187 212.378 344.38 212.079C345.632 210.14 345.81 207.405 342.915 207.36Z" fill="#E8B79E"/>
<path d="M344.209 207.97C344.17 207.976 344.131 207.981 344.093 207.987C342.577 208.216 341.191 209.03 340.049 210.057C337.619 212.241 335.62 215.11 333.444 217.558C331.75 219.463 330.054 221.575 328.181 223.424C328.298 223.549 328.398 223.69 328.472 223.853C329.204 225.472 329.477 226.477 330.485 227.942C332.309 224.665 339.944 219.92 344.191 215.392C345.029 214.496 345.833 213.543 346.342 212.427C347.3 210.328 347.079 207.594 344.209 207.97Z" fill="#EFC8B1"/>
<path d="M328.074 226.069C328.071 226.074 326.008 228.457 325.61 228.417C325.212 228.377 324.688 227.866 324.688 227.866L327.394 224.343C327.394 224.343 324.54 227.047 323.846 227.092C323.152 227.138 322.634 226.57 322.634 226.57L326.29 222.74C326.29 222.74 323.88 225.602 323.05 225.864C322.219 226.127 321.582 225.603 321.582 225.603L325.112 221.302L324.987 221.979C324.987 221.979 323.247 223.299 322.57 223.174C321.894 223.049 321.359 222.652 321.359 222.652C321.359 222.652 323.212 221.343 324.168 220.403C325.123 219.465 326.084 219.618 326.084 219.618C327.793 221.032 328.855 223.19 329.946 225.11C330.79 226.595 330.812 229.439 330.812 229.439C330.812 229.439 330.282 230.399 328.074 226.069Z" fill="#F8D0B7"/>
<path d="M302.161 153.651C302.161 153.651 299.127 159.489 299.297 167.92C299.297 167.92 293.62 160.492 301.029 149.88L302.161 153.651Z" fill="#161616"/>
<path d="M331.938 202.498C331.938 202.498 338.693 201.535 340.06 196.478C340.06 196.478 330.282 185.251 326.062 183.862C321.842 182.474 319.995 187.329 322.002 190.741C324.009 194.152 331.938 202.498 331.938 202.498Z" fill="white"/>
<path d="M300.21 192.952C300.21 192.952 300.502 191.486 301.675 189.861C302.849 188.235 300.495 189.238 298.217 190.293C298.217 190.293 300.225 191.412 300.222 192.135C300.22 192.542 300.21 192.952 300.21 192.952Z" fill="#E1E4E5"/>
<path d="M310.746 171.424C310.987 171.424 311.194 171.26 311.255 171.027C311.495 170.096 312.333 169.408 313.339 169.408C314.345 169.408 315.183 170.096 315.424 171.027C315.484 171.26 315.692 171.424 315.933 171.424C316.271 171.424 316.538 171.108 316.455 170.78C316.103 169.382 314.846 168.347 313.339 168.347C311.832 168.347 310.576 169.382 310.224 170.78C310.141 171.108 310.407 171.424 310.746 171.424Z" fill="#F05B4E"/>
<defs>
<filter id="filter0_d_11_96" x="179.578" y="112.064" width="40.2747" height="40.2743" filterUnits="userSpaceOnUse" color-interpolation-filters="sRGB">
<feFlood flood-opacity="0" result="BackgroundImageFix"/>
<feColorMatrix in="SourceAlpha" type="matrix" values="0 0 0 0 0 0 0 0 0 0 0 0 0 0 0 0 0 0 127 0" result="hardAlpha"/>
<feMorphology radius="7.02035" operator="erode" in="SourceAlpha" result="effect1_dropShadow_11_96"/>
<feOffset dy="10.5305"/>
<feGaussianBlur stdDeviation="11.7006"/>
<feColorMatrix type="matrix" values="0 0 0 0 0.243137 0 0 0 0 0.741176 0 0 0 0 1 0 0 0 0.45 0"/>
<feBlend mode="normal" in2="BackgroundImageFix" result="effect1_dropShadow_11_96"/>
<feBlend mode="normal" in="SourceGraphic" in2="effect1_dropShadow_11_96" result="shape"/>
</filter>
<filter id="filter1_d_11_96" x="382.931" y="208.732" width="40.2746" height="40.2743" filterUnits="userSpaceOnUse" color-interpolation-filters="sRGB">
<feFlood flood-opacity="0" result="BackgroundImageFix"/>
<feColorMatrix in="SourceAlpha" type="matrix" values="0 0 0 0 0 0 0 0 0 0 0 0 0 0 0 0 0 0 127 0" result="hardAlpha"/>
<feMorphology radius="7.02035" operator="erode" in="SourceAlpha" result="effect1_dropShadow_11_96"/>
<feOffset dy="10.5305"/>
<feGaussianBlur stdDeviation="11.7006"/>
<feColorMatrix type="matrix" values="0 0 0 0 0.243137 0 0 0 0 0.741176 0 0 0 0 1 0 0 0 0.45 0"/>
<feBlend mode="normal" in2="BackgroundImageFix" result="effect1_dropShadow_11_96"/>
<feBlend mode="normal" in="SourceGraphic" in2="effect1_dropShadow_11_96" result="shape"/>
</filter>
<filter id="filter2_d_11_96" x="302.791" y="284.864" width="40.2746" height="40.2743" filterUnits="userSpaceOnUse" color-interpolation-filters="sRGB">
<feFlood flood-opacity="0" result="BackgroundImageFix"/>
<feColorMatrix in="SourceAlpha" type="matrix" values="0 0 0 0 0 0 0 0 0 0 0 0 0 0 0 0 0 0 127 0" result="hardAlpha"/>
<feMorphology radius="7.02035" operator="erode" in="SourceAlpha" result="effect1_dropShadow_11_96"/>
<feOffset dy="10.5305"/>
<feGaussianBlur stdDeviation="11.7006"/>
<feColorMatrix type="matrix" values="0 0 0 0 0.243137 0 0 0 0 0.741176 0 0 0 0 1 0 0 0 0.45 0"/>
<feBlend mode="normal" in2="BackgroundImageFix" result="effect1_dropShadow_11_96"/>
<feBlend mode="normal" in="SourceGraphic" in2="effect1_dropShadow_11_96" result="shape"/>
</filter>
<filter id="filter3_d_11_96" x="160.044" y="278.853" width="48.2886" height="48.289" filterUnits="userSpaceOnUse" color-interpolation-filters="sRGB">
<feFlood flood-opacity="0" result="BackgroundImageFix"/>
<feColorMatrix in="SourceAlpha" type="matrix" values="0 0 0 0 0 0 0 0 0 0 0 0 0 0 0 0 0 0 127 0" result="hardAlpha"/>
<feMorphology radius="7.02035" operator="erode" in="SourceAlpha" result="effect1_dropShadow_11_96"/>
<feOffset dy="10.5305"/>
<feGaussianBlur stdDeviation="11.7006"/>
<feColorMatrix type="matrix" values="0 0 0 0 0.243137 0 0 0 0 0.741176 0 0 0 0 1 0 0 0 0.45 0"/>
<feBlend mode="normal" in2="BackgroundImageFix" result="effect1_dropShadow_11_96"/>
<feBlend mode="normal" in="SourceGraphic" in2="effect1_dropShadow_11_96" result="shape"/>
</filter>
<filter id="filter4_d_11_96" x="298.284" y="255.813" width="41.7772" height="41.7772" filterUnits="userSpaceOnUse" color-interpolation-filters="sRGB">
<feFlood flood-opacity="0" result="BackgroundImageFix"/>
<feColorMatrix in="SourceAlpha" type="matrix" values="0 0 0 0 0 0 0 0 0 0 0 0 0 0 0 0 0 0 127 0" result="hardAlpha"/>
<feMorphology radius="7.02035" operator="erode" in="SourceAlpha" result="effect1_dropShadow_11_96"/>
<feOffset dy="10.5305"/>
<feGaussianBlur stdDeviation="11.7006"/>
<feColorMatrix type="matrix" values="0 0 0 0 0.243137 0 0 0 0 0.741176 0 0 0 0 1 0 0 0 0.45 0"/>
<feBlend mode="normal" in2="BackgroundImageFix" result="effect1_dropShadow_11_96"/>
<feBlend mode="normal" in="SourceGraphic" in2="effect1_dropShadow_11_96" result="shape"/>
</filter>
<filter id="filter5_d_11_96" x="56.8647" y="255.312" width="41.7772" height="41.7772" filterUnits="userSpaceOnUse" color-interpolation-filters="sRGB">
<feFlood flood-opacity="0" result="BackgroundImageFix"/>
<feColorMatrix in="SourceAlpha" type="matrix" values="0 0 0 0 0 0 0 0 0 0 0 0 0 0 0 0 0 0 127 0" result="hardAlpha"/>
<feMorphology radius="7.02035" operator="erode" in="SourceAlpha" result="effect1_dropShadow_11_96"/>
<feOffset dy="10.5305"/>
<feGaussianBlur stdDeviation="11.7006"/>
<feColorMatrix type="matrix" values="0 0 0 0 0.243137 0 0 0 0 0.741176 0 0 0 0 1 0 0 0 0.45 0"/>
<feBlend mode="normal" in2="BackgroundImageFix" result="effect1_dropShadow_11_96"/>
<feBlend mode="normal" in="SourceGraphic" in2="effect1_dropShadow_11_96" result="shape"/>
</filter>
<filter id="filter6_d_11_96" x="250.701" y="296.384" width="37.2694" height="37.2694" filterUnits="userSpaceOnUse" color-interpolation-filters="sRGB">
<feFlood flood-opacity="0" result="BackgroundImageFix"/>
<feColorMatrix in="SourceAlpha" type="matrix" values="0 0 0 0 0 0 0 0 0 0 0 0 0 0 0 0 0 0 127 0" result="hardAlpha"/>
<feMorphology radius="7.02035" operator="erode" in="SourceAlpha" result="effect1_dropShadow_11_96"/>
<feOffset dy="10.5305"/>
<feGaussianBlur stdDeviation="11.7006"/>
<feColorMatrix type="matrix" values="0 0 0 0 0.243137 0 0 0 0 0.741176 0 0 0 0 1 0 0 0 0.45 0"/>
<feBlend mode="normal" in2="BackgroundImageFix" result="effect1_dropShadow_11_96"/>
<feBlend mode="normal" in="SourceGraphic" in2="effect1_dropShadow_11_96" result="shape"/>
</filter>
<linearGradient id="paint0_linear_11_96" x1="195.958" y1="117.914" x2="204.103" y2="118.676" gradientUnits="userSpaceOnUse">
<stop stop-color="#FCC822"/>
<stop offset="1" stop-color="#FFDD72"/>
</linearGradient>
<linearGradient id="paint1_linear_11_96" x1="399.312" y1="214.582" x2="407.456" y2="215.344" gradientUnits="userSpaceOnUse">
<stop stop-color="#FCC822"/>
<stop offset="1" stop-color="#FFDD72"/>
</linearGradient>
<linearGradient id="paint2_linear_11_96" x1="319.172" y1="290.714" x2="327.317" y2="291.476" gradientUnits="userSpaceOnUse">
<stop stop-color="#FCC822"/>
<stop offset="1" stop-color="#FFDD72"/>
</linearGradient>
<linearGradient id="paint3_linear_11_96" x1="176.425" y1="284.703" x2="193.256" y2="286.277" gradientUnits="userSpaceOnUse">
<stop stop-color="#FCC822"/>
<stop offset="1" stop-color="#FFDD72"/>
</linearGradient>
<linearGradient id="paint4_linear_11_96" x1="314.665" y1="261.663" x2="324.438" y2="262.577" gradientUnits="userSpaceOnUse">
<stop stop-color="#FCC822"/>
<stop offset="1" stop-color="#FFDD72"/>
</linearGradient>
<linearGradient id="paint5_linear_11_96" x1="73.2455" y1="261.162" x2="83.0189" y2="262.076" gradientUnits="userSpaceOnUse">
<stop stop-color="#FCC822"/>
<stop offset="1" stop-color="#FFDD72"/>
</linearGradient>
<linearGradient id="paint6_linear_11_96" x1="267.082" y1="302.234" x2="271.968" y2="302.691" gradientUnits="userSpaceOnUse">
<stop stop-color="#FDC68A"/>
<stop offset="1" stop-color="#FCC822"/>
</linearGradient>
<linearGradient id="paint7_linear_11_96" x1="276.098" y1="184.028" x2="276.098" y2="190.039" gradientUnits="userSpaceOnUse">
<stop stop-color="#FCC822"/>
<stop offset="1" stop-color="#FFDD72"/>
</linearGradient>
<linearGradient id="paint8_linear_11_96" x1="291.123" y1="202.902" x2="291.123" y2="208.913" gradientUnits="userSpaceOnUse">
<stop stop-color="#FCC822"/>
<stop offset="1" stop-color="#FFDD72"/>
</linearGradient>
<linearGradient id="paint9_linear_11_96" x1="300.64" y1="204.405" x2="300.64" y2="207.41" gradientUnits="userSpaceOnUse">
<stop stop-color="#FCC822"/>
<stop offset="1" stop-color="#FFDD72"/>
</linearGradient>
<linearGradient id="paint10_linear_11_96" x1="297.853" y1="211.134" x2="297.853" y2="214.139" gradientUnits="userSpaceOnUse">
<stop stop-color="#FCC822"/>
<stop offset="1" stop-color="#FFDD72"/>
</linearGradient>
<linearGradient id="paint11_linear_11_96" x1="290.962" y1="213.922" x2="290.962" y2="216.927" gradientUnits="userSpaceOnUse">
<stop stop-color="#FCC822"/>
<stop offset="1" stop-color="#FFDD72"/>
</linearGradient>
<linearGradient id="paint12_linear_11_96" x1="284.233" y1="211.134" x2="284.233" y2="214.139" gradientUnits="userSpaceOnUse">
<stop stop-color="#FCC822"/>
<stop offset="1" stop-color="#FFDD72"/>
</linearGradient>
<linearGradient id="paint13_linear_11_96" x1="281.607" y1="204.405" x2="281.607" y2="207.41" gradientUnits="userSpaceOnUse">
<stop stop-color="#FCC822"/>
<stop offset="1" stop-color="#FFDD72"/>
</linearGradient>
<linearGradient id="paint14_linear_11_96" x1="284.394" y1="197.676" x2="284.394" y2="200.681" gradientUnits="userSpaceOnUse">
<stop stop-color="#FCC822"/>
<stop offset="1" stop-color="#FFDD72"/>
</linearGradient>
<linearGradient id="paint15_linear_11_96" x1="290.962" y1="194.889" x2="290.962" y2="197.894" gradientUnits="userSpaceOnUse">
<stop stop-color="#FCC822"/>
<stop offset="1" stop-color="#FFDD72"/>
</linearGradient>
<linearGradient id="paint16_linear_11_96" x1="297.691" y1="197.676" x2="297.691" y2="200.681" gradientUnits="userSpaceOnUse">
<stop stop-color="#FCC822"/>
<stop offset="1" stop-color="#FFDD72"/>
</linearGradient>
</defs>
</svg>